<svg width="38" height="38" fill="none" xmlns="http://www.w3.org/2000/svg"><circle cx="11.963" cy="19" r="2.111" fill="#8B0304"/><circle cx="19" cy="19" r="2.111" fill="#8B0304"/><circle cx="26.037" cy="19" r="2.111" fill="#8B0304"/><mask id="a" fill="#fff"><path fill-rule="evenodd" clip-rule="evenodd" d="M19 38c10.493 0 19-8.507 19-19S29.493 0 19 0 0 8.507 0 19a18.91 18.91 0 003.34 10.762c.163.238.224.533.16.814l-1.03 4.458a1 1 0 001.2 1.199l4.74-1.094c.262-.06.535-.012.764.127A18.912 18.912 0 0019 38z"/></mask><path d="M8.41 35.139l-.45-1.949.45 1.949zm.764.127l1.036-1.711-1.036 1.71zm-5.504.967l-.45-1.949.45 1.949zm-.33-6.471l-1.648 1.134 1.647-1.134zm.16.814l1.948.45-1.949-.45zM36 19c0 9.389-7.611 17-17 17v4c11.598 0 21-9.402 21-21h-4zM19 2c9.389 0 17 7.611 17 17h4C40 7.402 30.598-2 19-2v4zM2 19C2 9.611 9.611 2 19 2v-4C7.402-2-2 7.402-2 19h4zm2.987 9.628A16.912 16.912 0 012 19h-4a20.91 20.91 0 003.692 11.896l3.295-2.268zm-.567 6.855l1.028-4.457-3.897-.9-1.029 4.458 3.898.9zm3.54-2.293l-4.74 1.094.9 3.898 4.74-1.094-.9-3.898zM19 36c-3.22 0-6.226-.894-8.79-2.445l-2.07 3.421A20.912 20.912 0 0019 40v-4zM8.86 37.088a.97.97 0 01-.721-.112l2.071-3.421a3.029 3.029 0 00-2.25-.365l.9 3.898zM.522 34.584c-.498 2.16 1.438 4.096 3.598 3.598l-.9-3.898a1 1 0 011.2 1.2l-3.898-.9zm1.17-3.688a.97.97 0 01-.141-.77l3.897.9a3.03 3.03 0 00-.461-2.398l-3.295 2.268z" fill="#EAABAC" mask="url(#a)"/></svg>