<svg width="58" height="52" fill="none" xmlns="http://www.w3.org/2000/svg"><path fill-rule="evenodd" clip-rule="evenodd" d="M53 26C53 12.745 42.255 2 29 2V0c14.36 0 26 11.64 26 26h-2zM5 26c0 13.255 10.745 24 24 24v2C14.64 52 3 40.36 3 26h2z" fill="#EAABAC"/><mask id="a" fill="#fff"><path d="M47 26c0 9.941-8.059 18-18 18s-18-8.059-18-18S19.059 8 29 8s18 8.059 18 18z"/></mask><path d="M45 26c0 8.837-7.163 16-16 16v4c11.046 0 20-8.954 20-20h-4zM29 42c-8.837 0-16-7.163-16-16H9c0 11.046 8.954 20 20 20v-4zM13 26c0-8.837 7.163-16 16-16V6C17.954 6 9 14.954 9 26h4zm16-16c8.837 0 16 7.163 16 16h4c0-11.046-8.954-20-20-20v4z" fill="#8B0304" mask="url(#a)"/><path d="M1 28l2.293-2.293a1 1 0 011.414 0L7 28m50-4l-2.293 2.293a1 1 0 01-1.414 0L51 24" stroke="#EAABAC" stroke-width="2"/><path d="M28.95 34c3.433 0 5.05-2.143 5.05-4.558 0-5.519-7.488-4.755-7.488-8.229 0-1.478 1.17-2.464 2.687-2.464 1.318 0 2.537.468 3.433 1.454l1.045-1.478C32.582 17.615 31.09 17 29.249 17c-2.761 0-4.752 1.799-4.752 4.312 0 5.297 7.488 4.262 7.488 8.253 0 1.405-.945 2.686-3.035 2.686-1.617 0-3.01-.813-3.855-1.823L24 31.93c1.12 1.257 2.786 2.07 4.95 2.07z" fill="#EAABAC"/><path fill="#EAABAC" d="M28 15h2v3h-2zm0 18h2v3h-2z"/></svg>