<svg width="48" height="43" fill="none" xmlns="http://www.w3.org/2000/svg"><path d="M24.28 40.571c-10.651 0-19.286-8.634-19.286-19.285h-2c0 11.755 9.53 21.285 21.286 21.285v-2zM24.28 2c10.651 0 19.286 8.634 19.286 19.286h2C45.566 9.53 36.036 0 24.28 0v2z" fill="#EAABAC" mask="url(#a)"/><mask id="a" fill="#fff"><path d="M38.885 21.286c0 8.066-6.539 14.605-14.605 14.605-8.067 0-14.606-6.539-14.606-14.605 0-8.067 6.539-14.606 14.605-14.606 8.067 0 14.606 6.54 14.606 14.606z"/></mask><path d="M36.885 21.286c0 6.962-5.643 12.605-12.605 12.605v4c9.17 0 16.605-7.434 16.605-16.605h-4zM24.28 33.89c-6.962 0-12.606-5.643-12.606-12.605h-4c0 9.17 7.434 16.605 16.605 16.605v-4zM11.673 21.286c0-6.962 5.644-12.606 12.605-12.606v-4c-9.17 0-16.605 7.435-16.605 16.606h4zM24.279 8.68c6.962 0 12.606 5.644 12.606 12.606h4c0-9.171-7.434-16.606-16.605-16.606v4z" fill="#8B0304" mask="url(#a)"/><path d="M1.56 22.909l1.727-1.728a1 1 0 011.414 0l1.727 1.728m40.571-3.246l-1.727 1.727a1 1 0 01-1.414 0l-1.727-1.727" stroke="#EAABAC" stroke-width="2"/><path d="M24.24 27.777c2.785 0 4.097-1.74 4.097-3.698 0-4.479-6.076-3.859-6.076-6.678 0-1.2.949-1.999 2.18-1.999 1.07 0 2.06.38 2.786 1.18l.848-1.2c-.889-.9-2.1-1.4-3.593-1.4-2.24 0-3.856 1.46-3.856 3.5 0 4.298 6.076 3.458 6.076 6.697 0 1.14-.767 2.179-2.463 2.179-1.312 0-2.442-.66-3.128-1.48l-.888 1.22c.908 1.02 2.26 1.68 4.016 1.68z" fill="#EAABAC"/><path fill="#EAABAC" d="M23.468 12.36h1.623v2.434h-1.623zm0 14.606h1.623V29.4h-1.623z"/></svg>