<svg xmlns="http://www.w3.org/2000/svg" width="54" height="54" fill="none"><circle cx="17" cy="27" r="3" fill="#8B0304"/><circle cx="27" cy="27" r="3" fill="#8B0304"/><circle cx="37" cy="27" r="3" fill="#8B0304"/><mask id="a" fill="#fff"><path fill-rule="evenodd" d="M27 54c14.912 0 27-12.088 27-27S41.912 0 27 0 0 12.088 0 27a26.876 26.876 0 004.855 15.45c.165.237.226.532.161.814L3.36 50.44a1 1 0 001.199 1.2l7.565-1.746c.26-.06.535-.013.763.127A26.873 26.873 0 0027 54z" clip-rule="evenodd"/></mask><path fill="#EAABAC" d="M12.124 49.895l-.45-1.95.45 1.95zm.763.127l-1.047 1.704 1.047-1.704zm-9.527.419l-1.949-.45 1.949.45zm1.199 1.2l-.45-1.95.45 1.95zm.296-9.19l-1.64 1.145 1.64-1.146zm.161.813l1.949.45-1.949-.45zM52 27c0 13.807-11.193 25-25 25v4c16.016 0 29-12.984 29-29h-4zM27 2c13.807 0 25 11.193 25 25h4C56 10.984 43.016-2 27-2v4zM2 27C2 13.193 13.193 2 27 2v-4C10.984-2-2 10.984-2 27h4zm4.494 14.304A24.876 24.876 0 012 27h-4a28.876 28.876 0 005.215 16.596l3.279-2.292zm-1.185 9.587l1.656-7.177-3.898-.9-1.656 7.177 3.898.9zm6.365-2.945L4.109 49.69l.9 3.898 7.564-1.746-.899-3.897zM27 52a24.874 24.874 0 01-13.066-3.682l-2.094 3.408A28.874 28.874 0 0027 56v-4zm-14.427-.157a.98.98 0 01-.733-.117l2.094-3.408a3.02 3.02 0 00-2.26-.372l.9 3.897zM1.411 49.991c-.499 2.16 1.438 4.096 3.598 3.598l-.9-3.898a1 1 0 011.2 1.2l-3.898-.9zm1.804-6.395a.98.98 0 01-.148-.782l3.898.9a3.02 3.02 0 00-.471-2.41l-3.279 2.292z" mask="url(#a)"/></svg>