<svg width="22" height="22" viewBox="0 0 22 22" fill="none" xmlns="http://www.w3.org/2000/svg">
<path d="M13.8372 3.71295C13.8372 4.78796 13.6716 5.85656 13.3465 6.88122C13.2571 7.1937 13.3016 7.55061 13.5696 7.77368L15.5329 9.73746C14.239 12.2812 12.186 14.3338 9.64216 15.6282L7.67888 13.6644C7.45576 13.4413 7.09885 13.3522 6.78637 13.4413C5.76007 13.7985 4.68883 13.9769 3.57317 13.9769C3.08247 13.9769 2.68066 14.3785 2.68066 14.8694L2.68066 17.9933C2.68066 18.4842 3.08247 18.8858 3.57317 18.8858C11.9628 18.8858 18.746 12.1025 18.746 3.71295C18.746 3.2222 18.3442 2.8204 17.8535 2.8204L14.7297 2.8204C14.239 2.8204 13.8372 3.2222 13.8372 3.71295Z" fill="white"/>
</svg>
