<svg xmlns="http://www.w3.org/2000/svg" width="49" height="49" fill="none"><path fill="#EFBFBF" stroke="#8B0304" d="M.5.5h48v48H.5z"/><mask id="a" width="49" height="49" x="0" y="0" maskUnits="userSpaceOnUse"><path fill="#C4C4C4" d="M0 0h49v49H0z"/></mask><g mask="url(#a)"><mask id="b" fill="#fff"><path fill-rule="evenodd" d="M26.473-9.61a5.409 5.409 0 005.225 4.712v4.162h3.745A5.408 5.408 0 0040.85 4.81v4.16a5.408 5.408 0 00-5.406 5.27h-3.745v3.051a5.408 5.408 0 00-5.225 6.1h-4.248a5.408 5.408 0 00-5.502-6.1V14.24h-3.468a5.408 5.408 0 00-5.407-5.27V4.81a5.408 5.408 0 005.406-5.546h3.468v-4.162a5.409 5.409 0 005.502-4.712h4.248z" clip-rule="evenodd"/></mask><path fill="#fff" fill-rule="evenodd" d="M26.473-9.61a5.409 5.409 0 005.225 4.712v4.162h3.745A5.408 5.408 0 0040.85 4.81v4.16a5.408 5.408 0 00-5.406 5.27h-3.745v3.051a5.408 5.408 0 00-5.225 6.1h-4.248a5.408 5.408 0 00-5.502-6.1V14.24h-3.468a5.408 5.408 0 00-5.407-5.27V4.81a5.408 5.408 0 005.406-5.546h3.468v-4.162a5.409 5.409 0 005.502-4.712h4.248z" clip-rule="evenodd"/><path fill="#8B0304" d="M26.473-9.61l.992-.127-.112-.873h-.88v1zm5.225 4.712h1v-.975l-.975-.024-.025 1zm0 4.162h-1v1h1v-1zm3.745 0l1 .025.026-1.025h-1.026v1zM40.85 4.81h1v-1h-1v1zm0 4.16v1h1v-1h-1zm-5.406 5.27v1h.976l.024-.976-1-.025zm-3.745 0v-1h-1v1h1zm0 3.051l.025 1 .975-.024v-.976h-1zm-5.225 6.1v1h1.136l-.144-1.127-.992.127zm-4.248 0l-.992-.127-.144 1.127h1.136v-1zm-5.502-6.1h-1v1.026l1.025-.026-.025-1zm0-3.052h1v-1h-1v1zm-3.468 0l-1 .025.024.975h.976v-1zM7.849 8.97h-1v1h1v-1zm0-4.16v-1h-1v1h1zm5.406-5.546v-1h-1.026l.026 1.025 1-.025zm3.468 0v1h1v-1h-1zm0-4.162l.025-1-1.025-.025v1.025h1zm5.502-4.712v-1h-.88l-.112.873.992.127zm3.256.127a6.409 6.409 0 006.192 5.585l.05-2a4.409 4.409 0 01-4.258-3.839l-1.984.254zm5.217 4.585v4.162h2v-4.162h-2zm1 5.162h3.745v-2h-3.745v2zm2.746-1.025c-.002.054-.002.109-.002.164h2l.001-.114-2-.05zm-.002.164a6.408 6.408 0 006.407 6.407v-2a4.408 4.408 0 01-4.407-4.407h-2zm7.407 9.567V4.81h-2v4.16h2zm-5.406 5.294A4.408 4.408 0 0140.85 9.97v-2a6.408 6.408 0 00-6.405 6.244l2 .05zm-4.745.975h3.745v-2h-3.745v2zm1 2.052V14.24h-2v3.052h2zm-5.27 5.406a4.408 4.408 0 014.295-4.406l-.05-2a6.408 6.408 0 00-6.244 6.406h2zm.037.567a4.455 4.455 0 01-.036-.567h-2c0 .278.018.552.052.82l1.984-.253zm-5.24 1.127h4.248v-2h-4.248v2zm-.956-1.694c0 .193-.012.382-.036.567l1.984.254c.034-.27.052-.543.052-.82h-2zm-4.407-4.407a4.408 4.408 0 014.407 4.407h2a6.408 6.408 0 00-6.407-6.407v2zm-.114.001l.113-.001v-2c-.054 0-.109 0-.163.002l.05 1.999zm-1.025-4.052v3.052h2V14.24h-2zm-2.468 1h3.468v-2h-3.468v2zM7.849 9.97a4.408 4.408 0 014.406 4.294l2-.05A6.408 6.408 0 007.848 7.97v2zm0 0v-2 2zm-1-5.16v4.16h2V4.81h-2zm1-1v2-2zm4.407-4.407A4.408 4.408 0 017.85 3.81v2a6.408 6.408 0 006.407-6.407h-2zm-.001-.114l.001.114h2c0-.055 0-.11-.002-.164l-2 .05zm4.468-1.025h-3.468v2h3.468v-2zm-1-3.162v4.162h2v-4.162h-2zm1.138-.998l-.113-.001-.05 2 .163.001v-2zm4.372-3.841a4.409 4.409 0 01-4.372 3.841v2a6.409 6.409 0 006.356-5.587l-1.984-.254zm5.24-.873h-4.248v2h4.248v-2z" mask="url(#b)"/><mask id="c" fill="#fff"><path fill-rule="evenodd" d="M26.473 25.61a5.409 5.409 0 005.225 4.712v4.161h3.745a5.408 5.408 0 005.406 5.546v4.16a5.408 5.408 0 00-5.406 5.27h-3.745v3.052a5.408 5.408 0 00-5.225 6.099h-4.248a5.408 5.408 0 00-5.502-6.1v-3.05h-3.468a5.408 5.408 0 00-5.406-5.27v-4.16a5.408 5.408 0 005.406-5.546h3.468v-4.161l.138.002a5.409 5.409 0 005.364-4.715h4.248z" clip-rule="evenodd"/></mask><path fill="#fff" fill-rule="evenodd" d="M26.473 25.61a5.409 5.409 0 005.225 4.712v4.161h3.745a5.408 5.408 0 005.406 5.546v4.16a5.408 5.408 0 00-5.406 5.27h-3.745v3.052a5.408 5.408 0 00-5.225 6.099h-4.248a5.408 5.408 0 00-5.502-6.1v-3.05h-3.468a5.408 5.408 0 00-5.406-5.27v-4.16a5.408 5.408 0 005.406-5.546h3.468v-4.161l.138.002a5.409 5.409 0 005.364-4.715h4.248z" clip-rule="evenodd"/><path fill="#8B0304" d="M26.473 25.61l.992-.128-.112-.873h-.88v1zm5.225 4.712h1v-.975l-.975-.025-.025 1zm0 4.161h-1v1h1v-1zm3.745 0l1 .026.026-1.026h-1.026v1zm5.406 5.547h1v-1h-1v1zm0 4.16v1h1v-1h-1zm-5.406 5.269v1h.976l.024-.975-1-.025zm-3.745 0v-1h-1v1h1zm0 3.052l.025 1 .975-.025v-.975h-1zm-5.225 6.099v1h1.136l-.144-1.127-.992.127zm-4.248 0l-.992-.127-.144 1.127h1.136v-1zm-5.502-6.1h-1v1.026l1.025-.026-.025-1zm0-3.051h1v-1h-1v1zm-3.468 0l-1 .025.024.975h.976v-1zm-5.406-5.27h-1v1h1v-1zm0-4.16v-1h-1v1h1zm5.406-5.546v-1h-1.026l.026 1.026 1-.026zm3.468 0v1h1v-1h-1zm0-4.161l.025-1-1.025-.026v1.026h1zm5.502-4.713v-1h-.88l-.112.873.992.127zm3.256.127a6.409 6.409 0 006.192 5.585l.05-1.999a4.409 4.409 0 01-4.258-3.84l-1.984.254zm5.217 4.586v4.161h2v-4.161h-2zm1 5.161h3.745v-2h-3.745v2zm2.746-1.025a6.357 6.357 0 00-.002.164h2l.001-.114-2-.05zm-.002.164a6.408 6.408 0 006.407 6.407v-2a4.408 4.408 0 01-4.407-4.407h-2zm7.407 9.568v-4.16h-2v4.16h2zm-5.406 5.294a4.408 4.408 0 014.406-4.294v-2a6.408 6.408 0 00-6.405 6.244l2 .05zm-4.745.975h3.745v-2h-3.745v2zm1 2.052v-3.052h-2v3.052h2zm-5.27 5.406a4.408 4.408 0 014.295-4.407l-.05-1.999a6.408 6.408 0 00-6.244 6.406h2zm.037.566a4.455 4.455 0 01-.036-.566h-2c0 .277.018.551.052.82l1.984-.254zm-5.24 1.127h4.248v-2h-4.248v2zm-.956-1.693a4.4 4.4 0 01-.036.566l1.984.254a6.54 6.54 0 00.052-.82h-2zm-4.408-4.408a4.408 4.408 0 014.408 4.408h2a6.408 6.408 0 00-6.408-6.408v2zm-.113.002c.038-.002.075-.002.113-.002v-2c-.054 0-.109 0-.163.002l.05 2zm-1.025-4.052v3.052h2v-3.052h-2zm-2.468 1h3.468v-2h-3.468v2zm-5.406-5.27a4.408 4.408 0 014.406 4.295l2-.05a6.408 6.408 0 00-6.406-6.244v2zm0 0v-2 2zm-1-5.16v4.16h2v-4.16h-2zm1-1v2-2zm4.407-4.407a4.408 4.408 0 01-4.407 4.407v2a6.408 6.408 0 006.407-6.407h-2zm-.001-.114l.001.114h2c0-.055 0-.11-.002-.164l-2 .05zm4.468-1.025h-3.468v2h3.468v-2zm-1-3.161v4.161h2v-4.161h-2zm1.138-.998l-.113-.002-.05 2 .163.002v-2zm4.372-3.842a4.409 4.409 0 01-4.372 3.841v2a6.409 6.409 0 006.356-5.587l-1.984-.254zm5.24-.873h-4.248v2h4.248v-2z" mask="url(#c)"/><mask id="d" fill="#fff"><path fill-rule="evenodd" d="M15.614 15.348h-3.468a5.408 5.408 0 00-10.812 0h-3.746v3.053a5.408 5.408 0 000 10.811v4.162h3.746a5.408 5.408 0 1010.812 0h3.468v-4.162a5.408 5.408 0 100-10.812v-3.052z" clip-rule="evenodd"/></mask><path fill="#fff" fill-rule="evenodd" d="M15.614 15.348h-3.468a5.408 5.408 0 00-10.812 0h-3.746v3.053a5.408 5.408 0 000 10.811v4.162h3.746a5.408 5.408 0 1010.812 0h3.468v-4.162a5.408 5.408 0 100-10.812v-3.052z" clip-rule="evenodd"/><path fill="#8B0304" d="M12.146 15.348l-1 .026.024.974h.976v-1zm3.468 0h1v-1h-1v1zm-14.28 0v1h.975l.025-.974-1-.026zm-3.746 0v-1h-1v1h1zm0 3.053l.026 1 .974-.025V18.4h-1zm0 10.811h1v-.975l-.974-.024-.026 1zm0 4.162h-1v1h1v-1zm3.746 0l1 .025.025-1.025H1.334v1zm10.812 0v-1H11.12l.026 1.025 1-.025zm3.468 0v1h1v-1h-1zm0-4.162l.025-1-1.025-.025v1.025h1zm0-10.811h-1v1.025l1.025-.026-.025-1zm-3.468-2.053h3.468v-2h-3.468v2zM6.74 11.08a4.408 4.408 0 014.406 4.295l2-.05A6.408 6.408 0 006.74 9.078v2zm-4.406 4.295A4.408 4.408 0 016.74 11.08v-2a6.408 6.408 0 00-6.406 6.244l2 .05zm-4.746.974h3.746v-2h-3.746v2zm1 2.053v-3.053h-2v3.053h2zm-5.269 5.405A4.408 4.408 0 01-2.386 19.4l-.05-2a6.408 6.408 0 00-6.245 6.407h2zm4.295 4.407a4.408 4.408 0 01-4.295-4.407h-2a6.408 6.408 0 006.244 6.406l.05-2zm.974 5.161v-4.162h-2v4.162h2zm2.746-1h-3.746v2h3.746v-2zm.998 1.139c0-.038 0-.076.002-.114l-2-.05a6.51 6.51 0 00-.002.164h2zM6.74 37.92a4.408 4.408 0 01-4.408-4.407h-2A6.408 6.408 0 006.74 39.92v-2zm4.408-4.407A4.408 4.408 0 016.74 37.92v2a6.408 6.408 0 006.408-6.407h-2zm-.002-.114l.002.114h2c0-.055-.001-.11-.003-.164l-1.999.05zm4.468-1.025h-3.468v2h3.468v-2zm-1-3.162v4.162h2v-4.162h-2zm1.139-.998l-.114-.001-.05 2 .164.001v-2zm4.407-4.407a4.408 4.408 0 01-4.407 4.407v2a6.408 6.408 0 006.407-6.407h-2zm-4.407-4.408a4.408 4.408 0 014.407 4.407h2a6.408 6.408 0 00-6.407-6.407v2zm-.114.001l.114-.001v-2c-.055 0-.11 0-.164.002l.05 2zm-1.025-4.052v3.053h2v-3.053h-2z" mask="url(#d)"/><mask id="e" fill="#fff"><path fill-rule="evenodd" d="M15.614-19.997h-3.468a5.408 5.408 0 00-10.812 0h-3.746v3.053a5.408 5.408 0 000 10.811v4.162h3.746a5.408 5.408 0 1010.812 0h3.468v-4.162a5.408 5.408 0 100-10.812v-3.052z" clip-rule="evenodd"/></mask><path fill="#fff" fill-rule="evenodd" d="M15.614-19.997h-3.468a5.408 5.408 0 00-10.812 0h-3.746v3.053a5.408 5.408 0 000 10.811v4.162h3.746a5.408 5.408 0 1010.812 0h3.468v-4.162a5.408 5.408 0 100-10.812v-3.052z" clip-rule="evenodd"/><path fill="#8B0304" d="M12.146-19.997l-1 .026.024.974h.976v-1zm3.468 0h1v-1h-1v1zm-14.28 0v1h.975l.025-.974-1-.026zm-3.746 0v-1h-1v1h1zm0 3.053l.026 1 .974-.025v-.975h-1zm0 10.811h1v-.975l-.974-.024-.026 1zm0 4.162h-1v1h1v-1zm3.746 0l1 .025.025-1.025H1.334v1zm10.812 0v-1H11.12l.026 1.025 1-.025zm3.468 0v1h1v-1h-1zm0-4.162l.025-1-1.025-.025v1.025h1zm0-10.811h-1v1.025l1.025-.026-.025-1zm-3.468-2.053h3.468v-2h-3.468v2zM6.74-24.266a4.408 4.408 0 014.406 4.295l2-.05a6.408 6.408 0 00-6.406-6.245v2zM2.334-19.97a4.408 4.408 0 014.406-4.295v-2a6.408 6.408 0 00-6.406 6.244l2 .05zm-4.746.974h3.746v-2h-3.746v2zm1 2.053v-3.053h-2v3.053h2zM-6.68-11.54a4.408 4.408 0 014.295-4.406l-.05-2A6.408 6.408 0 00-8.68-11.54h2zm4.295 4.407A4.408 4.408 0 01-6.68-11.54h-2a6.408 6.408 0 006.244 6.406l.05-2zm.974 5.161v-4.162h-2v4.162h2zm2.746-1h-3.746v2h3.746v-2zm.998 1.139c0-.038 0-.076.002-.114l-2-.05a6.511 6.511 0 00-.002.163h2zM6.74 2.575a4.408 4.408 0 01-4.408-4.408h-2A6.408 6.408 0 006.74 4.575v-2zm4.408-4.408A4.408 4.408 0 016.74 2.576v2a6.408 6.408 0 006.408-6.407h-2zm-.002-.113l.002.113h2a4.43 4.43 0 00-.003-.163l-1.999.05zm4.468-1.025h-3.468v2h3.468v-2zm-1-3.162v4.162h2v-4.162h-2zm1.139-.998l-.114-.001-.05 2 .164.001v-2zm4.407-4.408a4.408 4.408 0 01-4.407 4.408v2a6.408 6.408 0 006.407-6.408h-2zm-4.407-4.407a4.408 4.408 0 014.407 4.407h2a6.408 6.408 0 00-6.407-6.407v2zm-.114.001l.114-.001v-2c-.055 0-.11 0-.164.002l.05 2zm-1.025-4.052v3.053h2v-3.053h-2z" mask="url(#e)"/><mask id="f" fill="#fff"><path fill-rule="evenodd" d="M15.614 50.441h-3.468a5.408 5.408 0 00-10.812 0h-3.746v3.052a5.408 5.408 0 000 10.812v4.161h3.746a5.408 5.408 0 1010.812 0h3.468v-4.161l.139.002a5.408 5.408 0 10-.14-10.814v-3.052z" clip-rule="evenodd"/></mask><path fill="#fff" fill-rule="evenodd" d="M15.614 50.441h-3.468a5.408 5.408 0 00-10.812 0h-3.746v3.052a5.408 5.408 0 000 10.812v4.161h3.746a5.408 5.408 0 1010.812 0h3.468v-4.161l.139.002a5.408 5.408 0 10-.14-10.814v-3.052z" clip-rule="evenodd"/><path fill="#8B0304" d="M12.146 50.441l-1 .025.024.975h.976v-1zm3.468 0h1v-1h-1v1zm-14.28 0v1h.975l.025-.975-1-.025zm-3.746 0v-1h-1v1h1zm0 3.052l.026 1 .974-.025v-.975h-1zm0 10.812h1v-.975l-.974-.025-.026 1zm0 4.161h-1v1h1v-1zm3.746 0l1 .026.025-1.026H1.334v1zm10.812 0v-1H11.12l.026 1.026 1-.026zm3.468 0v1h1v-1h-1zm0-4.161l.025-1-1.025-.026v1.026h1zm0-10.812h-1v1.026l1.025-.026-.025-1zm-3.468-2.052h3.468v-2h-3.468v2zm-5.406-5.27a4.408 4.408 0 014.406 4.295l2-.05a6.408 6.408 0 00-6.406-6.244v2zm-4.406 4.295a4.408 4.408 0 014.406-4.294v-2a6.408 6.408 0 00-6.406 6.244l2 .05zm-4.746.975h3.746v-2h-3.746v2zm1 2.052v-3.052h-2v3.052h2zM-6.68 58.9a4.408 4.408 0 014.295-4.406l-.05-2A6.408 6.408 0 00-8.682 58.9h2zm4.295 4.406A4.408 4.408 0 01-6.681 58.9h-2a6.408 6.408 0 006.244 6.406l.05-2zm.974 5.161v-4.161h-2v4.161h2zm2.746-1h-3.746v2h3.746v-2zm.998 1.139c0-.038 0-.076.002-.113l-2-.05a6.51 6.51 0 00-.002.163h2zm4.408 4.408a4.408 4.408 0 01-4.408-4.408h-2a6.408 6.408 0 006.408 6.408v-2zm4.408-4.408a4.408 4.408 0 01-4.408 4.408v2a6.408 6.408 0 006.408-6.408h-2zm-.002-.113l.002.113h2c0-.055-.001-.11-.003-.164l-1.999.05zm4.468-1.026h-3.468v2h3.468v-2zm-1-3.161v4.161h2v-4.161h-2zm1.139-.998c-.038 0-.076 0-.114-.002l-.05 2 .164.002v-2zm4.407-4.408a4.408 4.408 0 01-4.407 4.408v2a6.408 6.408 0 006.407-6.408h-2zm-4.407-4.408A4.408 4.408 0 0120.16 58.9h2a6.408 6.408 0 00-6.407-6.408v2zm-.114.002l.114-.002v-2l-.164.002.05 2zm-1.025-4.052v3.052h2v-3.052h-2z" mask="url(#f)"/><mask id="g" fill="#fff"><path fill-rule="evenodd" d="M51.11 15.348h-3.468a5.408 5.408 0 00-10.812 0h-3.746v3.053a5.408 5.408 0 000 10.811v4.162h3.746a5.408 5.408 0 1010.812 0h3.468v-4.162a5.408 5.408 0 100-10.812v-3.052z" clip-rule="evenodd"/></mask><path fill="#fff" fill-rule="evenodd" d="M51.11 15.348h-3.468a5.408 5.408 0 00-10.812 0h-3.746v3.053a5.408 5.408 0 000 10.811v4.162h3.746a5.408 5.408 0 1010.812 0h3.468v-4.162a5.408 5.408 0 100-10.812v-3.052z" clip-rule="evenodd"/><path fill="#8B0304" d="M47.642 15.348l-1 .026.025.974h.975v-1zm3.468 0h1v-1h-1v1zm-14.28 0v1h.975l.025-.974-1-.026zm-3.746 0v-1h-1v1h1zm0 3.053l.026 1 .974-.025V18.4h-1zm0 10.811h1v-.975l-.974-.024-.026 1zm0 4.162h-1v1h1v-1zm3.746 0l1 .025.025-1.025H36.83v1zm10.812 0v-1h-1.026l.026 1.025 1-.025zm3.468 0v1h1v-1h-1zm0-4.162l.025-1-1.025-.025v1.025h1zm0-10.811h-1v1.025l1.025-.026-.025-1zm-3.468-2.053h3.468v-2h-3.468v2zm-5.406-5.269a4.408 4.408 0 014.406 4.295l2-.05a6.408 6.408 0 00-6.406-6.245v2zm-4.406 4.295a4.408 4.408 0 014.406-4.295v-2a6.408 6.408 0 00-6.406 6.244l2 .05zm-4.746.974h3.746v-2h-3.746v2zm1 2.053v-3.053h-2v3.053h2zm-5.269 5.405A4.408 4.408 0 0133.11 19.4l-.05-2a6.408 6.408 0 00-6.245 6.407h2zm4.295 4.407a4.408 4.408 0 01-4.295-4.407h-2a6.408 6.408 0 006.244 6.406l.05-2zm.974 5.161v-4.162h-2v4.162h2zm2.746-1h-3.746v2h3.746v-2zm.998 1.139c0-.038 0-.076.002-.114l-2-.05a6.357 6.357 0 00-.002.164h2zm4.408 4.407a4.408 4.408 0 01-4.408-4.407h-2a6.408 6.408 0 006.408 6.407v-2zm4.408-4.407a4.408 4.408 0 01-4.408 4.407v2a6.408 6.408 0 006.408-6.407h-2zm-.002-.114l.002.114h2l-.002-.164-2 .05zm4.468-1.025h-3.468v2h3.468v-2zm-1-3.162v4.162h2v-4.162h-2zm1.139-.998l-.114-.001-.05 2 .164.001v-2zm4.407-4.407a4.408 4.408 0 01-4.407 4.407v2a6.408 6.408 0 006.407-6.407h-2zm-4.407-4.408a4.408 4.408 0 014.407 4.407h2A6.408 6.408 0 0051.25 17.4v2zm-.114.001l.114-.001v-2c-.055 0-.11 0-.164.002l.05 2zm-1.025-4.052v3.053h2v-3.053h-2z" mask="url(#g)"/><mask id="h" fill="#fff"><path fill-rule="evenodd" d="M28.536 37.69H26.91a2.536 2.536 0 00-5.071 0H20.08v1.432a2.537 2.537 0 000 5.071v1.953h1.757l-.001.065a2.537 2.537 0 105.072-.065h1.627v-1.953l.065.001a2.537 2.537 0 10-.065-5.072V37.69z" clip-rule="evenodd"/></mask><path fill="#EFBFBF" fill-rule="evenodd" d="M28.536 37.69H26.91a2.536 2.536 0 00-5.071 0H20.08v1.432a2.537 2.537 0 000 5.071v1.953h1.757l-.001.065a2.537 2.537 0 105.072-.065h1.627v-1.953l.065.001a2.537 2.537 0 10-.065-5.072V37.69z" clip-rule="evenodd"/><path fill="#8B0304" d="M26.91 37.69l-1 .026.024.974h.975v-1zm1.626 0h1v-1h-1v1zm-6.698 0v1h.975l.024-.974-1-.026zm-1.757 0v-1h-1v1h1zm0 1.432l.025 1 .975-.025v-.975h-1zm0 5.071h1v-.975l-.975-.024-.025 1zm0 1.953h-1v1h1v-1zm1.757 0l1 .025.025-1.025h-1.025v1zm5.071 0v-1h-1.025l.026 1.025 1-.025zm1.627 0v1h1v-1h-1zm0-1.953l.025-1-1.025-.025v1.025h1zm0-5.071h-1v1.025l1.025-.025-.025-1zm-1.627-.432h1.627v-2H26.91v2zm-2.535-2.471c.835 0 1.515.667 1.536 1.496l1.999-.05a3.536 3.536 0 00-3.535-3.446v2zm-1.537 1.496a1.536 1.536 0 011.537-1.496v-2a3.537 3.537 0 00-3.536 3.446l2 .05zm-2.756.975h1.757v-2H20.08v2zm1 .432V37.69h-2v1.432h2zm-2.472 2.536c0-.836.667-1.516 1.497-1.536l-.05-2a3.537 3.537 0 00-3.447 3.536h2zm1.497 1.536a1.537 1.537 0 01-1.497-1.536h-2a3.537 3.537 0 003.447 3.535l.05-2zm.975 2.952v-1.953h-2v1.953h2zm.757-1H20.08v2h1.757v-2zm.999 1.065v-.04l-1.999-.05-.001.09h2zm1.537 1.536a1.537 1.537 0 01-1.537-1.536h-2a3.537 3.537 0 003.537 3.536v-2zm1.536-1.536c0 .848-.688 1.536-1.536 1.536v2a3.536 3.536 0 003.536-3.536h-2zm0-.04v.04h2l-.001-.09-2 .05zm2.626-1.025H26.91v2h1.627v-2zm-1-.953v1.953h2v-1.953h-2zm1.065-.999h-.04l-.05 2h.09v-2zm1.537-1.536c0 .848-.688 1.536-1.537 1.536v2a3.537 3.537 0 003.537-3.536h-2zM28.6 40.12c.849 0 1.537.688 1.537 1.537h2A3.537 3.537 0 0028.6 38.12v2zm-.04 0h.04v-2l-.09.001.05 2zm-1.025-2.43v1.43h2v-1.43h-2z" mask="url(#h)"/><mask id="i" fill="#fff"><path fill-rule="evenodd" d="M28.536 3.237H26.91a2.537 2.537 0 00-5.071 0H20.08V4.67a2.537 2.537 0 000 5.071v1.953h1.757l-.001.064a2.537 2.537 0 105.072-.064h1.627V9.74l.065.001a2.537 2.537 0 10-.065-5.072V3.237z" clip-rule="evenodd"/></mask><path fill="#EFBFBF" fill-rule="evenodd" d="M28.536 3.237H26.91a2.537 2.537 0 00-5.071 0H20.08V4.67a2.537 2.537 0 000 5.071v1.953h1.757l-.001.064a2.537 2.537 0 105.072-.064h1.627V9.74l.065.001a2.537 2.537 0 10-.065-5.072V3.237z" clip-rule="evenodd"/><path fill="#8B0304" d="M26.91 3.237l-1 .025.024.975h.975v-1zm1.626 0h1v-1h-1v1zm-6.698 0v1h.975l.024-.975-1-.025zm-1.757 0v-1h-1v1h1zm0 1.432l.025 1 .975-.025v-.975h-1zm0 5.071h1v-.975l-.975-.024-.025 1zm0 1.953h-1v1h1v-1zm1.757 0l1 .025.025-1.025h-1.025v1zm5.071 0v-1h-1.025l.026 1.025 1-.025zm1.627 0v1h1v-1h-1zm0-1.953l.025-1-1.025-.025V9.74h1zm0-5.071h-1v1.025l1.025-.026-.025-1zm-1.627-.432h1.627v-2H26.91v2zm-2.535-2.471c.835 0 1.515.666 1.536 1.496l1.999-.05a3.537 3.537 0 00-3.535-3.446v2zm-1.537 1.496a1.536 1.536 0 011.537-1.496v-2a3.537 3.537 0 00-3.536 3.446l2 .05zm-2.756.975h1.757v-2H20.08v2zm1 .432V3.237h-2V4.67h2zm-2.472 2.536c0-.836.667-1.516 1.497-1.537l-.05-1.999a3.537 3.537 0 00-3.447 3.536h2zm1.497 1.536a1.537 1.537 0 01-1.497-1.536h-2a3.537 3.537 0 003.447 3.535l.05-2zm.975 2.952V9.74h-2v1.953h2zm.757-1H20.08v2h1.757v-2zm.999 1.064v-.04l-1.999-.05-.001.09h2zm1.537 1.537a1.537 1.537 0 01-1.537-1.537h-2a3.537 3.537 0 003.537 3.537v-2zm1.536-1.537c0 .849-.688 1.537-1.536 1.537v2a3.537 3.537 0 003.536-3.537h-2zm0-.04v.04h2l-.001-.09-2 .05zm2.626-1.024H26.91v2h1.627v-2zm-1-.953v1.953h2V9.74h-2zm1.065-.999h-.04l-.05 1.999.09.001v-2zm1.537-1.536c0 .848-.688 1.536-1.537 1.536v2a3.537 3.537 0 003.537-3.536h-2zM28.6 5.668c.849 0 1.537.688 1.537 1.537h2A3.537 3.537 0 0028.6 3.668v2zm-.04 0h.04v-2l-.09.001.05 2zm-1.025-2.43v1.43h2v-1.43h-2z" mask="url(#i)"/><mask id="j" fill="#fff"><path fill-rule="evenodd" d="M51.11-20.762h-3.468a5.408 5.408 0 00-10.812 0h-3.746v3.052a5.408 5.408 0 000 10.812v4.161h3.746a5.408 5.408 0 1010.812 0h3.468v-4.161l.139.002a5.408 5.408 0 10-.139-10.814v-3.052z" clip-rule="evenodd"/></mask><path fill="#fff" fill-rule="evenodd" d="M51.11-20.762h-3.468a5.408 5.408 0 00-10.812 0h-3.746v3.052a5.408 5.408 0 000 10.812v4.161h3.746a5.408 5.408 0 1010.812 0h3.468v-4.161l.139.002a5.408 5.408 0 10-.139-10.814v-3.052z" clip-rule="evenodd"/><path fill="#8B0304" d="M47.642-20.762l-1 .025.025.975h.975v-1zm3.468 0h1v-1h-1v1zm-14.28 0v1h.975l.025-.975-1-.025zm-3.746 0v-1h-1v1h1zm0 3.052l.026 1 .974-.025v-.975h-1zm0 10.812h1v-.975l-.974-.025-.026 1zm0 4.161h-1v1h1v-1zm3.746 0l1 .026.025-1.026H36.83v1zm10.812 0v-1h-1.026l.026 1.026 1-.026zm3.468 0v1h1v-1h-1zm0-4.161l.025-1-1.025-.026v1.026h1zm0-10.812h-1v1.025l1.025-.025-.025-1zm-3.468-2.052h3.468v-2h-3.468v2zm-5.406-5.27a4.408 4.408 0 014.406 4.295l2-.05a6.408 6.408 0 00-6.406-6.244v2zm-4.406 4.295a4.408 4.408 0 014.406-4.294v-2a6.408 6.408 0 00-6.406 6.244l2 .05zm-4.746.975h3.746v-2h-3.746v2zm1 2.052v-3.052h-2v3.052h2zm-5.269 5.406a4.408 4.408 0 014.295-4.406l-.05-2a6.408 6.408 0 00-6.245 6.406h2zm4.295 4.406a4.408 4.408 0 01-4.295-4.406h-2A6.408 6.408 0 0033.06-5.9l.05-1.999zm.974 5.161v-4.161h-2v4.161h2zm2.746-1h-3.746v2h3.746v-2zm.998 1.139c0-.038 0-.076.002-.113l-2-.05a6.359 6.359 0 00-.002.163h2zm4.408 4.408a4.408 4.408 0 01-4.408-4.408h-2a6.408 6.408 0 006.408 6.408v-2zm4.408-4.408a4.408 4.408 0 01-4.408 4.408v2a6.408 6.408 0 006.408-6.408h-2zm-.002-.113l.002.113h2l-.002-.164-2 .05zm4.468-1.026h-3.468v2h3.468v-2zm-1-3.161v4.161h2v-4.161h-2zm1.139-.998l-.114-.002-.05 2 .164.002v-2zm4.407-4.408a4.408 4.408 0 01-4.407 4.408v2a6.408 6.408 0 006.407-6.408h-2zm-4.407-4.408a4.408 4.408 0 014.407 4.408h2a6.408 6.408 0 00-6.407-6.408v2zm-.114.002l.114-.002v-2c-.055 0-.11 0-.164.002l.05 2zm-1.025-4.052v3.052h2v-3.052h-2z" mask="url(#j)"/><mask id="k" fill="#fff"><path fill-rule="evenodd" d="M51.11 51.207h-3.468a5.408 5.408 0 00-10.812 0h-3.746v3.052a5.408 5.408 0 000 10.811v4.162h3.746a5.408 5.408 0 1010.812 0h3.468V65.07a5.408 5.408 0 100-10.812v-3.051z" clip-rule="evenodd"/></mask><path fill="#fff" fill-rule="evenodd" d="M51.11 51.207h-3.468a5.408 5.408 0 00-10.812 0h-3.746v3.052a5.408 5.408 0 000 10.811v4.162h3.746a5.408 5.408 0 1010.812 0h3.468V65.07a5.408 5.408 0 100-10.812v-3.051z" clip-rule="evenodd"/><path fill="#8B0304" d="M47.642 51.207l-1 .025.025.975h.975v-1zm3.468 0h1v-1h-1v1zm-14.28 0v1h.975l.025-.975-1-.025zm-3.746 0v-1h-1v1h1zm0 3.052l.026 1 .974-.025v-.975h-1zm0 10.811h1v-.975l-.974-.024-.026 1zm0 4.162h-1v1h1v-1zm3.746 0l1 .025.025-1.025H36.83v1zm10.812 0v-1h-1.026l.026 1.025 1-.025zm3.468 0v1h1v-1h-1zm0-4.162l.025-1-1.025-.025v1.025h1zm0-10.811h-1v1.025l1.025-.026-.025-1zm-3.468-2.052h3.468v-2h-3.468v2zm-5.406-5.27a4.408 4.408 0 014.406 4.295l2-.05a6.408 6.408 0 00-6.406-6.245v2zm-4.406 4.295a4.408 4.408 0 014.406-4.294v-2a6.408 6.408 0 00-6.406 6.243l2 .05zm-4.746.975h3.746v-2h-3.746v2zm1 2.052v-3.052h-2v3.052h2zm-5.269 5.406a4.408 4.408 0 014.295-4.407l-.05-1.999a6.408 6.408 0 00-6.245 6.406h2zm4.295 4.406a4.408 4.408 0 01-4.295-4.406h-2a6.408 6.408 0 006.244 6.405l.05-2zm.974 5.161V65.07h-2v4.162h2zm2.746-1h-3.746v2h3.746v-2zm.998 1.139c0-.038 0-.076.002-.114l-2-.05a6.363 6.363 0 00-.002.164h2zm4.408 4.407a4.408 4.408 0 01-4.408-4.407h-2a6.408 6.408 0 006.408 6.407v-2zm4.408-4.407a4.408 4.408 0 01-4.408 4.407v2a6.408 6.408 0 006.408-6.407h-2zm-.002-.114l.002.114h2l-.002-.164-2 .05zm4.468-1.025h-3.468v2h3.468v-2zm-1-3.162v4.162h2V65.07h-2zm1.139-.998l-.114-.001-.05 2 .164.001v-2zm4.407-4.407a4.408 4.408 0 01-4.407 4.407v2a6.408 6.408 0 006.407-6.407h-2zm-4.407-4.408a4.408 4.408 0 014.407 4.408h2a6.408 6.408 0 00-6.407-6.408v2zm-.114.001l.114-.001v-2c-.055 0-.11 0-.164.002l.05 2zm-1.025-4.051v3.052h2v-3.052h-2z" mask="url(#k)"/><mask id="l" fill="#fff"><path fill-rule="evenodd" d="M61.5-9.61a5.409 5.409 0 005.224 4.712v4.162h3.746a5.408 5.408 0 005.406 5.546v4.16a5.408 5.408 0 00-5.406 5.27h-3.746v3.051a5.408 5.408 0 00-5.225 6.1h-4.248a5.408 5.408 0 00-5.502-6.1V14.24h-3.468a5.408 5.408 0 00-5.406-5.269V4.81a5.408 5.408 0 005.406-5.546h3.468v-4.162a5.409 5.409 0 005.502-4.712H61.5z" clip-rule="evenodd"/></mask><path fill="#fff" fill-rule="evenodd" d="M61.5-9.61a5.409 5.409 0 005.224 4.712v4.162h3.746a5.408 5.408 0 005.406 5.546v4.16a5.408 5.408 0 00-5.406 5.27h-3.746v3.051a5.408 5.408 0 00-5.225 6.1h-4.248a5.408 5.408 0 00-5.502-6.1V14.24h-3.468a5.408 5.408 0 00-5.406-5.269V4.81a5.408 5.408 0 005.406-5.546h3.468v-4.162a5.409 5.409 0 005.502-4.712H61.5z" clip-rule="evenodd"/><path fill="#8B0304" d="M61.5-9.61l.991-.127-.112-.873h-.88v1zm5.224 4.712h1v-.975l-.975-.024-.025 1zm0 4.162h-1v1h1v-1zm3.746 0l1 .025.025-1.025H70.47v1zm5.406 5.546h1v-1h-1v1zm0 4.16v1h1v-1h-1zm-5.406 5.27v1h.975l.024-.976-1-.025zm-3.746 0v-1h-1v1h1zm0 3.051l.025 1 .975-.024v-.976h-1zm-5.225 6.1v1h1.136l-.144-1.127-.992.127zm-4.248 0l-.991-.127-.145 1.127h1.136v-1zm-5.502-6.1h-1v1.026l1.025-.026-.025-1zm0-3.052h1v-1h-1v1zm-3.468 0l-1 .025.025.975h.975v-1zM42.875 8.97h-1v1h1v-1zm0-4.16v-1h-1v1h1zm5.406-5.546v-1h-1.026l.026 1.025 1-.025zm3.468 0v1h1v-1h-1zm0-4.162l.025-1-1.025-.025v1.025h1zm5.502-4.712v-1h-.88l-.111.873.991.127zm3.256.127A6.409 6.409 0 0066.7-3.898l.05-2a4.409 4.409 0 01-4.258-3.839l-1.984.254zm5.217 4.585v4.162h2v-4.162h-2zm1 5.162h3.746v-2h-3.746v2zM69.47-.761l-.002.164h2l.001-.114-1.999-.05zm-.002.164a6.408 6.408 0 006.408 6.407v-2a4.408 4.408 0 01-4.408-4.407h-2zm5.408 5.407v4.16h2V4.81h-2zm1 3.16a6.408 6.408 0 00-6.406 6.244l2 .05a4.408 4.408 0 014.406-4.294v-2zm-5.406 5.27h-3.746v2h3.746v-2zm-4.746 1v3.051h2V14.24h-2zm.975 2.052a6.408 6.408 0 00-6.244 6.405h2a4.408 4.408 0 014.294-4.406l-.05-2zm-6.244 6.405c0 .278.018.552.052.82l1.984-.253a4.455 4.455 0 01-.036-.567h-2zm1.044-.306h-4.248v2H61.5v-2zm-3.256 1.127c.035-.27.052-.543.052-.82h-2a4.6 4.6 0 01-.035.566l1.983.254zm.052-.82a6.408 6.408 0 00-6.407-6.408v2a4.408 4.408 0 014.407 4.407h2zm-6.407-6.408c-.055 0-.11 0-.164.002l.05 1.999.114-.001v-2zm.861 1.001V14.24h-2v3.052h2zm-1-4.052h-3.468v2h3.468v-2zm-2.468.975a6.408 6.408 0 00-6.406-6.244v2a4.408 4.408 0 014.406 4.294l2-.05zM43.875 8.97V4.81h-2v4.16h2zm-1-3.16a6.408 6.408 0 006.408-6.407h-2a4.408 4.408 0 01-4.408 4.407v2zm6.408-6.407l-.002-.164-2 .05.002.114h2zm-1.002.86h3.468v-2h-3.468v2zm4.468-1v-4.16h-2v4.16h2zm-1.025-3.16l.164.001v-2l-.114-.001-.05 2zm.164.001a6.409 6.409 0 006.355-5.587l-1.983-.254a4.409 4.409 0 01-4.372 3.841v2zM57.25-8.61h4.25v-2h-4.248v2z" mask="url(#l)"/><mask id="m" fill="#fff"><path fill-rule="evenodd" d="M-8.173-9.61a5.409 5.409 0 005.225 4.712v4.162H.798A5.408 5.408 0 006.204 4.81v4.16a5.408 5.408 0 00-5.406 5.27h-3.746v3.051a5.408 5.408 0 00-5.225 6.1h-4.248a5.408 5.408 0 00-5.502-6.1V14.24h-3.468a5.408 5.408 0 00-5.406-5.269V4.81A5.408 5.408 0 00-21.39-.736h3.468v-4.162A5.409 5.409 0 00-12.42-9.61h4.248z" clip-rule="evenodd"/></mask><path fill="#fff" fill-rule="evenodd" d="M-8.173-9.61a5.409 5.409 0 005.225 4.712v4.162H.798A5.408 5.408 0 006.204 4.81v4.16a5.408 5.408 0 00-5.406 5.27h-3.746v3.051a5.408 5.408 0 00-5.225 6.1h-4.248a5.408 5.408 0 00-5.502-6.1V14.24h-3.468a5.408 5.408 0 00-5.406-5.269V4.81A5.408 5.408 0 00-21.39-.736h3.468v-4.162A5.409 5.409 0 00-12.42-9.61h4.248z" clip-rule="evenodd"/><path fill="#8B0304" d="M-8.173-9.61l.992-.127-.111-.873h-.88v1zm5.225 4.712h1v-.975l-.975-.024-.025 1zm0 4.162h-1v1h1v-1zm3.746 0l1 .025.025-1.025H.798v1zM6.204 4.81h1v-1h-1v1zm0 4.16v1h1v-1h-1zM.798 14.24v1h.975l.025-.976-1-.025zm-3.746 0v-1h-1v1h1zm0 3.051l.025 1 .975-.024v-.976h-1zm-5.225 6.1v1h1.136l-.144-1.127-.992.127zm-4.248 0l-.991-.127-.145 1.127h1.136v-1zm-5.502-6.1h-1v1.026l1.025-.026-.025-1zm0-3.052h1v-1h-1v1zm-3.468 0l-1 .025.025.975h.975v-1zm-5.406-5.269h-1v1h1v-1zm0-4.16v-1h-1v1h1zm5.406-5.546v-1h-1.025l.025 1.025 1-.025zm3.468 0v1h1v-1h-1zm0-4.162l.025-1-1.025-.025v1.025h1zm5.502-4.712v-1h-.88l-.111.873.992.127zm3.256.127a6.409 6.409 0 006.192 5.585l.05-2A4.409 4.409 0 01-7.18-9.736l-1.984.254zm5.217 4.585v4.162h2v-4.162h-2zm1 5.162H.798v-2h-3.746v2zM-.202-.761l-.002.164h2c0-.038 0-.076.002-.114l-2-.05zm-.002.164A6.408 6.408 0 006.204 5.81v-2A4.408 4.408 0 011.796-.597h-2zM7.204 8.97V4.81h-2v4.16h2zm-5.406 5.294A4.408 4.408 0 016.204 9.97v-2a6.408 6.408 0 00-6.406 6.244l2 .05zm-4.746.975H.798v-2h-3.746v2zm1 2.052V14.24h-2v3.052h2zm-5.269 5.406a4.408 4.408 0 014.294-4.406l-.05-2a6.408 6.408 0 00-6.244 6.406h2zm.036.567a4.46 4.46 0 01-.036-.567h-2c0 .278.018.552.052.82l1.984-.253zm-5.24 1.127h4.248v-2h-4.248v2zm-.955-1.694c0 .193-.013.382-.036.567l1.984.254c.034-.27.052-.543.052-.82h-2zm-4.408-4.407a4.408 4.408 0 014.408 4.407h2a6.408 6.408 0 00-6.408-6.407v2zm-.114.001l.114-.001v-2c-.055 0-.11 0-.164.002l.05 1.999zm-1.025-4.052v3.052h2V14.24h-2zm-2.468 1h3.468v-2h-3.468v2zm-5.406-5.269a4.408 4.408 0 014.406 4.294l2-.05a6.408 6.408 0 00-6.406-6.244v2zm0 0v-2 2zm-1-5.16v4.16h2V4.81h-2zm1-1v2-2zm4.408-4.407a4.408 4.408 0 01-4.408 4.407v2a6.408 6.408 0 006.408-6.407h-2zm-.002-.114l.002.114h2c0-.055 0-.11-.002-.164l-2 .05zm4.468-1.025h-3.468v2h3.468v-2zm-1-3.162v4.162h2v-4.162h-2zm1.139-.998l-.114-.001-.05 2 .164.001v-2zm4.372-3.841a4.409 4.409 0 01-4.372 3.841v2a6.409 6.409 0 006.355-5.587l-1.983-.254zm5.24-.873h-4.248v2h4.247v-2z" mask="url(#m)"/><mask id="n" fill="#fff"><path fill-rule="evenodd" d="M42.618 17.61a2.371 2.371 0 002.291 2.065V21.5h1.642v.06a2.37 2.37 0 002.37 2.372v1.823a2.37 2.37 0 00-2.37 2.31H44.91v1.338a2.37 2.37 0 00-2.29 2.675h-1.863a2.37 2.37 0 00-2.412-2.674v-1.338h-1.52a2.37 2.37 0 00-2.37-2.31v-1.824a2.37 2.37 0 002.37-2.432h1.52v-1.825l.06.001a2.371 2.371 0 002.352-2.067h1.862z" clip-rule="evenodd"/></mask><path fill="#EFBFBF" fill-rule="evenodd" d="M42.618 17.61a2.371 2.371 0 002.291 2.065V21.5h1.642v.06a2.37 2.37 0 002.37 2.372v1.823a2.37 2.37 0 00-2.37 2.31H44.91v1.338a2.37 2.37 0 00-2.29 2.675h-1.863a2.37 2.37 0 00-2.412-2.674v-1.338h-1.52a2.37 2.37 0 00-2.37-2.31v-1.824a2.37 2.37 0 002.37-2.432h1.52v-1.825l.06.001a2.371 2.371 0 002.352-2.067h1.862z" clip-rule="evenodd"/><path fill="#8B0304" d="M42.618 17.61l.992-.128-.111-.873h-.88v1zm2.291 2.065h1V18.7l-.975-.024-.025 1zm0 1.825h-1v1h1v-1zm1.642 0l1 .025.026-1.025H46.55v1zm0 .06h1-1zm2.37 2.372h1v-1h-1v1zm0 1.823v1h1v-1h-1zm-2.37 2.31v1h.975l.025-.974-1-.026zm-1.642 0v-1h-1v1h1zm0 1.338l.025 1 .975-.024v-.976h-1zm-2.29 2.675v1h1.136l-.145-1.128-.992.128zm-1.863 0l-.992-.128-.144 1.128h1.136v-1zm-2.412-2.675h-1v1.026l1.025-.026-.025-1zm0-1.337h1v-1h-1v1zm-1.52 0l-1 .025.024.974h.975v-1zm-2.37-2.31h-1v1h1v-1zm0-1.824v-1h-1v1h1zm2.37-2.432v-1h-1.026l.026 1.025 1-.025zm1.52 0v1h1v-1h-1zm0-1.825l.025-1-1.025-.025v1.025h1zm2.412-2.066v-1h-.88l-.112.873.992.127zm.87.127a3.371 3.371 0 003.258 2.94l.05-2a1.371 1.371 0 01-1.324-1.194l-1.984.254zm2.283 1.94V21.5h2v-1.825h-2zm1 2.824h1.642v-2H44.91v2zm.642-1.025v.086h2v-.036l-2-.05zm0 .086a3.37 3.37 0 003.37 3.37v-2a1.37 1.37 0 01-1.37-1.37h-2zm3.37 3.37v-2 2zm-1-1v1.824h2v-1.823h-2zm1 .824v2-2zm0 0a3.37 3.37 0 00-3.37 3.285l2 .05a1.37 1.37 0 011.37-1.335v-2zm-2.37 2.31H44.91v2h1.642v-2zm-2.642 1v1.338h2v-1.337h-2zm.975.339a3.371 3.371 0 00-3.285 3.37h2a1.37 1.37 0 011.335-1.37l-.05-2zm-3.285 3.37c0 .145.01.289.027.43l1.984-.253a1.404 1.404 0 01-.011-.177h-2zm1.02-.697h-1.863v2h1.862v-2zm-.871 1.127a3.4 3.4 0 00.027-.43h-2c0 .06-.003.119-.01.177l1.983.253zm.027-.43a3.37 3.37 0 00-3.37-3.371v2c.757 0 1.37.614 1.37 1.37h2zm-3.37-3.371h-.087l.05 2h.036v-2zm.939 1v-1.337h-2v1.338h2zm-1-2.337h-1.52v2h1.52v-2zm-.521.974a3.37 3.37 0 00-3.37-3.285v2a1.37 1.37 0 011.37 1.336l2-.05zm-2.37-2.285v-1.823h-2v1.823h2zm-1-.823a3.37 3.37 0 003.37-3.371h-2a1.37 1.37 0 01-1.37 1.37v2zm3.37-3.371v-.086l-2 .05v.036h2zm-1 .94h1.52v-2h-1.52v2zm2.52-1v-1.826h-2V21.5h2zm-1.025-.826l.087.001v-2h-.036l-.05 2zm.087.001a3.371 3.371 0 003.343-2.94l-1.984-.254a1.371 1.371 0 01-1.36 1.194v2zm2.351-2.067h1.862v-2h-1.862v2z" mask="url(#n)"/><mask id="o" fill="#fff"><path fill-rule="evenodd" d="M8.165 17.61a2.371 2.371 0 002.29 2.065V21.5h1.643v.06a2.37 2.37 0 002.37 2.372v1.823a2.37 2.37 0 00-2.37 2.31h-1.642v1.338a2.37 2.37 0 00-2.29 2.675H6.302a2.37 2.37 0 00-2.412-2.674v-1.338H2.37A2.37 2.37 0 000 25.756v-1.824A2.37 2.37 0 002.37 21.5h1.52v-1.825l.061.001a2.371 2.371 0 002.352-2.067h1.862z" clip-rule="evenodd"/></mask><path fill="#EFBFBF" fill-rule="evenodd" d="M8.165 17.61a2.371 2.371 0 002.29 2.065V21.5h1.643v.06a2.37 2.37 0 002.37 2.372v1.823a2.37 2.37 0 00-2.37 2.31h-1.642v1.338a2.37 2.37 0 00-2.29 2.675H6.302a2.37 2.37 0 00-2.412-2.674v-1.338H2.37A2.37 2.37 0 000 25.756v-1.824A2.37 2.37 0 002.37 21.5h1.52v-1.825l.061.001a2.371 2.371 0 002.352-2.067h1.862z" clip-rule="evenodd"/><path fill="#8B0304" d="M8.165 17.61l.992-.128-.112-.873h-.88v1zm2.29 2.065h1V18.7l-.974-.024-.025 1zm0 1.825h-1v1h1v-1zm1.643 0l1 .025.025-1.025h-1.025v1zm2.37 2.432h1v-1h-1v1zm0 1.823v1h1v-1h-1zm-2.37 2.31v1h.975l.025-.974-1-.026zm-1.642 0v-1h-1v1h1zm0 1.338l.025 1 .975-.024v-.976h-1zm-2.29 2.675v1H9.3l-.144-1.128-.992.128zm-1.863 0l-.992-.128-.144 1.128h1.136v-1zM3.89 29.402h-1v1.026l1.025-.026-.025-1zm0-1.337h1v-1h-1v1zm-1.52 0l-1 .025.024.974h.975v-1zM0 25.756h-1v1h1v-1zm0-1.824v-1h-1v1h1zM2.37 21.5v-1H1.345l.025 1.025 1-.025zm1.52 0v1h1v-1h-1zm0-1.825l.026-1-1.025-.025v1.025h1zm2.413-2.066v-1h-.88l-.112.873.992.127zm.87.127a3.371 3.371 0 003.258 2.94l.05-2a1.371 1.371 0 01-1.324-1.194l-1.984.254zm2.283 1.94V21.5h2v-1.825h-2zm1 2.824h1.642v-2h-1.642v2zm.642-1.025v.086h2v-.036l-2-.05zm0 .086a3.37 3.37 0 003.37 3.37v-2a1.37 1.37 0 01-1.37-1.37h-2zm4.37 4.194v-1.823h-2v1.823h2zm-2.37 2.336a1.37 1.37 0 011.37-1.336v-2a3.37 3.37 0 00-3.37 3.285l2 .05zm-2.642.974h1.642v-2h-1.642v2zm1 .338v-1.337h-2v1.338h2zm-2.31 2.37a1.37 1.37 0 011.335-1.37l-.05-2a3.37 3.37 0 00-3.285 3.37h2zm.011.178a1.392 1.392 0 01-.011-.177h-2c0 .145.01.289.027.43l1.984-.253zm-2.854 1.127h1.862v-2H6.303v2zm-.98-1.304c0 .06-.005.119-.012.177l1.984.253a3.4 3.4 0 00.027-.43h-2zM3.95 30.403c.757 0 1.371.614 1.371 1.37h2a3.37 3.37 0 00-3.37-3.37v2zm-.035 0h.035v-2h-.086l.05 2zM2.89 28.066v1.338h2v-1.338h-2zm-.52 1h1.52v-2H2.37v2zM0 26.756a1.37 1.37 0 011.37 1.335l2-.05A3.37 3.37 0 000 24.754v2zm0 0v-2 2zm-1-2.824v1.823h2v-1.823h-2zm1-1v2-2zm1.37-1.371A1.37 1.37 0 010 22.93v2a3.37 3.37 0 003.37-3.37h-2zm0-.036v.036h2v-.086l-2 .05zM3.89 20.5H2.37v2h1.52v-2zm-1-.825V21.5h2v-1.825h-2zm1.061-.999h-.035l-.05 2h.085v-2zm1.36-1.194a1.371 1.371 0 01-1.36 1.194v2a3.371 3.371 0 003.344-2.94l-1.984-.254zm2.854-.873H6.303v2h1.862v-2z" mask="url(#o)"/><mask id="p" fill="#fff"><path fill-rule="evenodd" d="M62.265 25.61a5.409 5.409 0 005.225 4.712v4.161h3.745a5.408 5.408 0 005.406 5.546v4.16a5.408 5.408 0 00-5.406 5.27H67.49v3.052a5.408 5.408 0 00-5.225 6.099h-4.248a5.408 5.408 0 00-5.502-6.1v-3.05h-3.468a5.408 5.408 0 00-5.406-5.27v-4.16a5.408 5.408 0 005.406-5.546h3.468v-4.161l.138.002a5.409 5.409 0 005.364-4.715h4.248z" clip-rule="evenodd"/></mask><path fill="#fff" fill-rule="evenodd" d="M62.265 25.61a5.409 5.409 0 005.225 4.712v4.161h3.745a5.408 5.408 0 005.406 5.546v4.16a5.408 5.408 0 00-5.406 5.27H67.49v3.052a5.408 5.408 0 00-5.225 6.099h-4.248a5.408 5.408 0 00-5.502-6.1v-3.05h-3.468a5.408 5.408 0 00-5.406-5.27v-4.16a5.408 5.408 0 005.406-5.546h3.468v-4.161l.138.002a5.409 5.409 0 005.364-4.715h4.248z" clip-rule="evenodd"/><path fill="#8B0304" d="M62.265 25.61l.992-.128-.112-.873h-.88v1zm5.225 4.712h1v-.975l-.975-.025-.025 1zm0 4.161h-1v1h1v-1zm3.745 0l1 .026.026-1.026h-1.026v1zm5.406 5.547h1v-1h-1v1zm0 4.16v1h1v-1h-1zm-5.406 5.269v1h.975l.025-.975-1-.025zm-3.745 0v-1h-1v1h1zm0 3.052l.025 1 .975-.025v-.975h-1zm-5.225 6.099v1H63.4l-.144-1.127-.992.127zm-4.248 0l-.992-.127-.144 1.127h1.136v-1zm-5.502-6.1h-1v1.026l1.025-.026-.025-1zm0-3.051h1v-1h-1v1zm-3.468 0l-1 .025.024.975h.976v-1zm-5.406-5.27h-1v1h1v-1zm0-4.16v-1h-1v1h1zm5.406-5.546v-1H48.02l.026 1.026 1-.026zm3.468 0v1h1v-1h-1zm0-4.161l.025-1-1.025-.026v1.026h1zm5.502-4.713v-1h-.88l-.112.873.992.127zm3.256.127a6.409 6.409 0 006.192 5.585l.05-1.999a4.409 4.409 0 01-4.258-3.84l-1.984.254zm5.217 4.586v4.161h2v-4.161h-2zm1 5.161h3.745v-2H67.49v2zm2.746-1.025a6.357 6.357 0 00-.002.164h2l.001-.114-2-.05zm-.002.164a6.408 6.408 0 006.407 6.407v-2a4.408 4.408 0 01-4.407-4.407h-2zm7.407 9.568v-4.16h-2v4.16h2zm-5.406 5.294a4.408 4.408 0 014.406-4.294v-2a6.408 6.408 0 00-6.405 6.244l2 .05zm-4.745.975h3.745v-2H67.49v2zm1 2.052v-3.052h-2v3.052h2zm-5.27 5.406a4.408 4.408 0 014.295-4.407l-.05-1.999a6.408 6.408 0 00-6.244 6.406h2zm.037.566a4.455 4.455 0 01-.036-.566h-2c0 .277.018.551.052.82l1.984-.254zm-5.24 1.127h4.248v-2h-4.248v2zm-.956-1.693a4.4 4.4 0 01-.036.566l1.984.254a6.54 6.54 0 00.052-.82h-2zm-4.408-4.408a4.408 4.408 0 014.408 4.408h2a6.408 6.408 0 00-6.408-6.408v2zm-.113.002a4.28 4.28 0 01.113-.002v-2c-.054 0-.109 0-.163.002l.05 2zm-1.025-4.052v3.052h2v-3.052h-2zm-2.468 1h3.468v-2h-3.468v2zm-5.406-5.27a4.408 4.408 0 014.406 4.295l2-.05a6.408 6.408 0 00-6.406-6.244v2zm-1-5.16v4.16h2v-4.16h-2zm5.407-5.407a4.408 4.408 0 01-4.407 4.407v2a6.408 6.408 0 006.407-6.407h-2zm-.001-.114l.001.114h2c0-.055 0-.11-.002-.164l-2 .05zm4.468-1.025h-3.468v2h3.468v-2zm-1-3.161v4.161h2v-4.161h-2zm1.138-.998l-.113-.002-.05 2 .163.002v-2zm4.372-3.842a4.409 4.409 0 01-4.372 3.841v2a6.409 6.409 0 006.356-5.587l-1.984-.254zm5.24-.873h-4.248v2h4.248v-2z" mask="url(#p)"/><mask id="q" fill="#fff"><path fill-rule="evenodd" d="M-8.938 25.61a5.409 5.409 0 005.225 4.712v4.161H.032a5.408 5.408 0 005.406 5.546v4.16a5.408 5.408 0 00-5.406 5.27h-3.745v3.052a5.408 5.408 0 00-5.225 6.099h-4.248a5.408 5.408 0 00-5.502-6.1v-3.05h-3.469a5.408 5.408 0 00-5.405-5.27v-4.16a5.408 5.408 0 005.405-5.546h3.469v-4.161l.138.002a5.409 5.409 0 005.364-4.715h4.248z" clip-rule="evenodd"/></mask><path fill="#fff" fill-rule="evenodd" d="M-8.938 25.61a5.409 5.409 0 005.225 4.712v4.161H.032a5.408 5.408 0 005.406 5.546v4.16a5.408 5.408 0 00-5.406 5.27h-3.745v3.052a5.408 5.408 0 00-5.225 6.099h-4.248a5.408 5.408 0 00-5.502-6.1v-3.05h-3.469a5.408 5.408 0 00-5.405-5.27v-4.16a5.408 5.408 0 005.405-5.546h3.469v-4.161l.138.002a5.409 5.409 0 005.364-4.715h4.248z" clip-rule="evenodd"/><path fill="#8B0304" d="M-8.938 25.61l.992-.128-.112-.873h-.88v1zm5.225 4.712h1v-.975l-.975-.025-.025 1zm0 4.161h-1v1h1v-1zm3.745 0l1 .026.026-1.026H.032v1zm5.406 5.547h1v-1h-1v1zm0 4.16v1h1v-1h-1zM.032 49.459v1h.975l.025-.975-1-.025zm-3.745 0v-1h-1v1h1zm0 3.052l.025 1 .975-.025v-.975h-1zm-5.225 6.099v1h1.136l-.144-1.127-.992.127zm-4.248 0l-.992-.127-.144 1.127h1.136v-1zm-5.502-6.1h-1v1.026l1.025-.026-.025-1zm0-3.051h1v-1h-1v1zm-3.469 0l-1 .025.025.975h.975v-1zm-5.405-5.27h-1v1h1v-1zm0-4.16v-1h-1v1h1zm5.405-5.546v-1h-1.025l.026 1.026 1-.026zm3.469 0v1h1v-1h-1zm0-4.161l.025-1-1.025-.026v1.026h1zm5.502-4.713v-1h-.88l-.112.873.992.127zm3.256.127a6.409 6.409 0 006.192 5.585l.05-1.999a4.409 4.409 0 01-4.258-3.84l-1.984.254zm5.217 4.586v4.161h2v-4.161h-2zm1 5.161H.032v-2h-3.745v2zm2.746-1.025a6.515 6.515 0 00-.003.164h2c0-.038 0-.076.002-.114l-2-.05zm-.003.164a6.408 6.408 0 006.408 6.407v-2a4.408 4.408 0 01-4.408-4.407h-2zm7.408 9.568v-4.16h-2v4.16h2zm-5.406 5.294a4.408 4.408 0 014.406-4.294v-2a6.408 6.408 0 00-6.405 6.244l1.999.05zm-4.745.975H.032v-2h-3.745v2zm1 2.052v-3.052h-2v3.052h2zm-5.27 5.406a4.408 4.408 0 014.295-4.407l-.05-1.999a6.408 6.408 0 00-6.244 6.406h2zm.037.566a4.46 4.46 0 01-.036-.566h-2c0 .277.017.551.052.82l1.984-.254zm-5.24 1.127h4.248v-2h-4.248v2zm-.956-1.693a4.4 4.4 0 01-.036.566l1.984.254a6.54 6.54 0 00.052-.82h-2zm-4.408-4.408a4.408 4.408 0 014.408 4.408h2a6.408 6.408 0 00-6.408-6.408v2zm-.113.002a4.28 4.28 0 01.113-.002v-2c-.055 0-.11 0-.163.002l.05 2zm-1.025-4.052v3.052h2v-3.052h-2zm-2.469 1h3.469v-2h-3.469v2zm-5.405-5.27a4.408 4.408 0 014.406 4.295l2-.05a6.408 6.408 0 00-6.407-6.244v2zm0 0v-2 2zm-1-5.16v4.16h2v-4.16h-2zm1-1v2-2zm4.407-4.407a4.408 4.408 0 01-4.407 4.407v2a6.408 6.408 0 006.407-6.407h-2zm-.001-.114l.001.114h2c0-.055 0-.11-.002-.164l-2 .05zm4.468-1.025h-3.469v2h3.469v-2zm-1-3.161v4.161h2v-4.161h-2zm1.138-.998l-.113-.002-.05 2 .163.002v-2zm4.372-3.842a4.409 4.409 0 01-4.372 3.841v2a6.409 6.409 0 006.356-5.587l-1.984-.254zm5.24-.873h-4.248v2h4.248v-2z" mask="url(#q)"/></g><path stroke="#8B0304" d="M.5.5h48v48H.5z"/></svg>