<svg xmlns="http://www.w3.org/2000/svg" width="49" height="49" fill="none"><path stroke="#8B0304" d="M.5.5h48v48H.5z"/><path fill="#EFBFBF" d="M12 24v13h13V24z"/><path fill="#EFBFBF" d="M0 12v13h13V12z"/><path fill="#EFBFBF" d="M12 0v13h13V0zm24 24v13h13V24z"/><path fill="#EFBFBF" d="M24 36v13h13V36zm0-24v13h13V12z"/><path fill="#EFBFBF" d="M36 0v13h13V0z"/><path stroke="#8B0304" d="M.5.5h12v12H.5zm3 .5v11m3-11v11m3-11v11m-9 12.5h12v12H.5zm3 .5v11m3-11v11m3-11v11m39-23.5h-12v12h12zm-3 .5v11m-3-11v11m-3-11v11m9 12.5h-12v12h12zm-3 .5v11m-3-11v11m-3-11v11M24.5.5h12v12h-12zm3 .5v11m3-11v11m3-11v11m-9 12.5h12v12h-12zm3 .5v11m3-11v11m3-11v11m-9-23.5h-12v12h12zm-3 .5v11m-3-11v11m-3-11v11m9 12.5h-12v12h12zm-3 .5v11m-3-11v11m-3-11v11m9-47.5v12h-12V.5zm-.5 3H13m11 3H13m11 3H13m11.5 15v12h-12v-12zm-.5 3H13m11 3H13m11 3H13m11.5-21v12h12v-12zm.5 3h11m-11 3h11m-11 3h11m-11.5 15v12h12v-12zm.5 3h11m-11 3h11m-11 3h11M48.5.5v12h-12V.5zm-.5 3H37m11 3H37m11 3H37m11.5 15v12h-12v-12zm-.5 3H37m11 3H37m11 3H37M.5 12.5v12h12v-12zm.5 3h11m-11 3h11m-11 3h11"/><path fill="#EFBFBF" d="M0 36v13h13V36z"/><path stroke="#8B0304" d="M.5 36.5v12h12v-12zm.5 3h11m-11 3h11m-11 3h11"/></svg>