<svg xmlns="http://www.w3.org/2000/svg" width="109" height="50" fill="none"><path fill="#8B0304" d="M26.1 8.031l-4.65 2.706a.386.386 0 01-.385 0l-7.54-4.41a.386.386 0 00-.385 0L6.48 10.19c-.113.068-.248.068-.384 0L1.468 7.508c-.249-.136-.249-.5 0-.659L13.14.051a.386.386 0 01.384 0L26.1 7.372c.249.16.249.523 0 .66zM18.198 19.99l-4.493 2.592a.386.386 0 01-.384 0L.181 14.92A.402.402 0 010 14.58V9.395c0-.296.316-.478.564-.319L18.198 19.33c.248.137.248.5 0 .66z"/><path fill="#8B0304" d="M26.665 16.307v5.184a.367.367 0 01-.564.318L8.67 11.692c-.25-.137-.25-.5 0-.66l4.47-2.614a.386.386 0 01.383 0l12.96 7.548c.113.068.18.205.18.341zm-1.468 7.753l-11.673 6.798c-.113.068-.248.068-.384 0L.564 23.56c-.248-.137-.248-.5 0-.66l4.629-2.705c.113-.068.248-.068.384 0l7.766 4.479a.386.386 0 00.384 0l6.66-3.865a.388.388 0 01.385 0L25.22 23.4c.225.136.225.5-.023.659z"/><g fill="#1C1C1C"><path d="M55.837 9.763C55.72 3.561 50.966.91 45.072.91c-6.521 0-10.764 3.277-10.764 8.308 0 5.656 4.36 6.788 8.918 8.075 5.775 1.638 7.661 2.028 7.661 4.213 0 2.301-1.964 3.705-5.186 3.705-3.732 0-6.207-1.482-6.325-5.227h-6.09c.079 6.28 4.557 9.908 12.14 9.908 5.697 0 11.511-2.418 11.511-8.971 0-4.642-3.182-6.554-8.171-7.958-5.58-1.56-8.565-1.755-8.565-4.174 0-1.989 1.69-3.16 4.518-3.16 3.26 0 5.068 1.444 5.304 4.135h5.814zm8.311-.623h-5.264v26.33h5.54v-8.7c1.492 2.067 3.692 3.003 6.246 3.003 5.304 0 8.8-4.135 8.8-10.454 0-6.475-3.575-10.727-9.036-10.727-2.593 0-4.793.975-6.286 3.043V9.139zm4.911 3.9c2.986 0 4.833 2.34 4.833 6.28 0 3.823-1.807 6.124-4.793 6.124-3.065 0-4.872-2.301-4.872-6.202 0-3.9 1.807-6.202 4.832-6.202zM86.656 1.494h-5.58v27.773h5.58V1.494zm7.888 0h-5.579v4.68h5.579v-4.68zm0 7.645h-5.579v20.128h5.579V9.139z"/><path d="M108.482 9.14h-4.125V3.053h-5.54V9.14h-5.683v3.745h5.683v10.454c0 4.915 1.493 6.163 6.286 6.163 1.258 0 1.847-.039 3.379-.156v-4.213c-.668.078-1.1.078-1.689.078-2.397 0-2.436-.897-2.436-2.847v-9.479h4.125V9.139z"/></g><path fill="#A6A6A6" d="M4.843 47.522v-7.13h2.49v-1.301H.91v1.302H3.4v7.13h1.444zm5.955.152c1.541 0 2.638-1.2 2.638-3.21s-1.097-3.199-2.638-3.199c-.777 0-1.468.38-1.912.986v-.834H7.592v8.431h1.294v-3.173c.481.658 1.16.999 1.912.999zm-.383-1.176c-.604 0-1.245-.379-1.529-.821v-2.415c.284-.455.925-.821 1.53-.821 1.023 0 1.676.847 1.676 2.022 0 1.188-.653 2.035-1.677 2.035zm6.993 1.176c1.912 0 3.07-1.454 3.07-3.21 0-1.745-1.158-3.199-3.07-3.199-1.886 0-3.058 1.454-3.058 3.198 0 1.757 1.172 3.211 3.058 3.211zm0-1.176c-1.097 0-1.714-.948-1.714-2.035 0-1.074.617-2.022 1.714-2.022 1.11 0 1.727.948 1.727 2.022 0 1.087-.617 2.035-1.727 2.035zm6.761 1.024V42.58h1.713v-1.163h-4.71v1.163h1.702v4.942h1.295zm2.514 2.389c.186.051.543.089.728.089.925-.013 1.64-.341 2.047-1.378l2.873-7.205h-1.393l-1.739 4.576-1.739-4.576h-1.38l2.44 6.181-.295.695c-.173.405-.444.531-.85.531-.149 0-.358-.038-.494-.1l-.198 1.187zm11.393-2.389v-4.045c0-1.643-1.159-2.212-2.478-2.212-.95 0-1.813.316-2.503.986l.53.923c.518-.518 1.097-.771 1.763-.771.826 0 1.393.43 1.393 1.137v.91c-.431-.518-1.122-.783-1.923-.783-.974 0-2.072.581-2.072 1.984 0 1.353 1.098 2.023 2.072 2.023.789 0 1.48-.29 1.923-.809v.657h1.295zm-2.713-.758c-.727 0-1.27-.43-1.27-1.087 0-.67.543-1.1 1.27-1.1.568 0 1.122.215 1.418.632v.923c-.296.417-.85.632-1.418.632zm7.597.91c1.542 0 2.64-1.2 2.64-3.21s-1.098-3.199-2.64-3.199c-.776 0-1.467.38-1.91.986v-.834h-1.295v8.431h1.294v-3.173c.481.658 1.16.999 1.912.999zm-.382-1.176c-.604 0-1.245-.379-1.529-.821v-2.415c.284-.455.925-.821 1.53-.821 1.023 0 1.676.847 1.676 2.022 0 1.188-.653 2.035-1.677 2.035zm5.6 1.024v-2.54h2.737v2.54h1.295v-6.105h-1.295v2.401h-2.737v-2.401h-1.295v6.105h1.295zm10.646 0v-4.045c0-1.643-1.16-2.212-2.479-2.212-.95 0-1.812.316-2.503.986l.53.923c.518-.518 1.098-.771 1.764-.771.826 0 1.393.43 1.393 1.137v.91c-.432-.518-1.122-.783-1.924-.783-.974 0-2.071.581-2.071 1.984 0 1.353 1.097 2.023 2.071 2.023.79 0 1.48-.29 1.924-.809v.657h1.295zm-2.713-.758c-.728 0-1.27-.43-1.27-1.087 0-.67.542-1.1 1.27-1.1.567 0 1.122.215 1.418.632v.923c-.296.417-.85.632-1.418.632zm5.661.758l1.307-2.212h1.369v2.212h1.295v-6.105H62.34c-1.283 0-1.973.897-1.973 1.946 0 1.05.616 1.707 1.393 1.884l-1.467 2.275h1.48zm.728-3.375c-.518 0-.814-.328-.814-.784 0-.455.32-.783.814-.783h1.948v1.567H62.5zm13.408 3.375v-6.105H70.58v6.105h1.295V42.58h2.737v4.942h1.295zm1.065.152c1.307 0 2.046-.923 2.28-3.135l.21-1.96h2.158v4.943h1.295v-6.105h-4.6l-.357 2.97c-.197 1.606-.48 2.2-.986 2.2v1.087zm8.87-.152l2.786-4.222v4.222h1.295v-6.105H88.63l-2.737 4.108v-4.108h-1.295v6.105h1.246zm8.142 0V42.58H95.7v-1.163h-4.71v1.163h1.702v4.942h1.294zm8.348 0l-2.528-3.337 2.478-2.768h-1.603l-2.626 2.945v-2.945h-1.295v6.105h1.295V45.88l.826-.872 1.825 2.515h1.628zm5.849 0v-4.045c0-1.643-1.159-2.212-2.479-2.212-.949 0-1.812.316-2.503.986l.531.923c.517-.518 1.097-.771 1.763-.771.826 0 1.393.43 1.393 1.137v.91c-.431-.518-1.122-.783-1.923-.783-.975 0-2.072.581-2.072 1.984 0 1.353 1.097 2.023 2.072 2.023.789 0 1.479-.29 1.923-.809v.657h1.295zm-2.713-.758c-.727 0-1.27-.43-1.27-1.087 0-.67.543-1.1 1.27-1.1.567 0 1.122.215 1.418.632v.923c-.296.417-.851.632-1.418.632z"/></svg>