<svg xmlns="http://www.w3.org/2000/svg" width="1000" height="252"><path fill-rule="evenodd" clip-rule="evenodd" fill="#AF2027" d="M397.226 75.028c-15.728-2.404-39.671-1.625-43.063-13.737-.765-2.731-.729-6.054 0-8.677 4.521-16.241 43.875-17.32 46.683 0 1.058.51-.571 3.705 1.086 3.615h41.616c-.133-18.635-7.182-30.743-17.732-39.766C415.765 7.867 401.039 1.602 384.2.557c-26.581-1.649-46.657 6.544-58.986 19.16-8.359 8.554-13.751 20.804-13.751 35.789 0 28.015 13.58 41.709 33.654 48.441 9.703 3.254 23.143 4.578 35.465 5.784 11.017 1.078 26.175 3.556 25.331 15.906-.298 4.363-3.884 8.092-7.6 10.122-14.078 7.693-42.224 3.956-45.959-9.761-.276-1.017.183-2.61-1.085-3.254H309.29c-.28 20.958 8.529 33.198 20.627 42.296 11.943 8.981 28.917 14.894 49.216 14.822 31.176-.11 57.646-13.901 66.586-36.15 6.711-16.702 3.109-40.875-8.323-52.418-8.623-8.703-23.397-13.702-40.17-16.266zM570.205 4.534c-13.045-2.331-28.013-1.445-43.426-1.445h-45.235c-.421.061-.393.571-.361 1.084v171.715h44.149c.241-14.581-.482-30.125.361-44.104 16.403-.5 30.999 1.089 43.788-1.085 12.355-2.1 22.646-7.502 30.397-14.821 14.909-14.079 23.986-39.665 16.646-67.602-6.047-23.022-21.882-39.375-46.319-43.742zm1.447 78.447c-1.796 3.05-5.401 6.749-8.686 7.953-3.537 1.296-9.723 1.34-15.5 1.475-10.844.253-21.773.092-21.773.092l-.361-50.009h19.541s15.047-.304 19.541 1.808c11.505 5.404 14.44 26.447 7.238 38.681zm187.817 53.141c-20.146-1.083-42.822.36-62.968-.723V3.089h-44.149c-.422.061-.393.571-.361 1.084v171.715h107.116c.841-12.535.122-26.629.362-39.766zm34.74-131.949v171.715h43.787V3.089H794.57c-.422.06-.392.571-.361 1.084zm205.909 38.681V3.089H871.651v39.403c13.39.844 28.347.121 42.34.362v132.672c13.874.841 29.311.122 43.787.361.845-43.622.121-88.81.362-133.033h41.978zM84.562 84.788v27.113h168.636V83.704H84.923c-.421.061-.392.571-.361 1.084zm112.906 33.982c-.845 43.743-.121 89.051-.362 133.396h56.091V119.132c-17.852-.844-37.273-.121-55.729-.362zM.244 252.165H190.23v-56.033H.244v56.033z"/><path fill-rule="evenodd" clip-rule="evenodd" fill="#777876" d="M56.697 133.592V.196H.244V133.23c18.094.842 37.755.122 56.453.362zm6.875-77.363h189.625V.196H63.572v56.033zM.244 140.46v27.836H168.88v-28.197c-56.093.241-113.147-.482-168.636.361zm357.175 77.724c.497-3.63-3.918-2.352-6.875-2.53-.845 11.447-.121 24.461-.362 36.512h6.876v-11.568c.266-1.296 1.375.318 1.447.361 1.96 1.173 3.799 2.425 7.6 2.169 10.125-.68 14.707-13.469 10.133-21.689-2.889-5.192-12.994-9.895-18.819-3.255zm3.257 18.075c-5.882-2.591-5.521-12.718 1.086-14.46 13.745-3.624 10.991 19.779-1.086 14.46zm44.873-21.329c-.244.029-.358.361-.361.362-6.088.991-9.349 5.034-10.494 7.591-2.111 4.712-1.13 9.771 0 12.292 3.377 7.54 14.827 11.059 22.437 4.699 10.191-8.52 3.762-26.777-11.582-24.944zm6.514 20.606c-9.815 6.76-16.731-11.365-6.152-13.737 8.435-1.892 12.127 9.622 6.152 13.737zm125.573-17.352c-8.6-8.103-21.056.019-20.989 10.845.07 11.423 12.092 18.139 20.989 11.207v2.169h6.876v-26.751h-6.876v2.53zm-4.343 18.436c-11.11 3.452-14.317-17.313 0-15.183 6.582 2.134 5.723 13.406 0 15.183zm47.045-21.69c-4.811-.717-7.443 1.024-10.856 3.254 1.177-4.067-3.715-2.073-6.152-2.53-.844 11.447-.121 24.461-.362 36.512h6.515v-11.568c.869-1.355 2.32 1.274 3.618 1.808 1.43.588 3.643.875 5.79.723 15.65-1.11 14.816-26.205 1.447-28.199zm-6.152 21.69c-5.39-1.596-7.118-13.264 0-14.821 12.679-4.217 12.377 18.485 0 14.821zm94.812-18.436c-7.142-7.127-18.806-1.507-20.627 6.868-2.084 9.582 5.14 21.032 16.284 17.714 1.548-.461 1.997-1.617 4.343-2.53v2.169h6.876v-26.751h-6.876v2.53zm-11.219 17.352c-4.496-3.309-3.434-12.207 2.172-13.737 4.004-1.094 7.811.371 9.047 3.615 2.946 7.731-5.143 14.591-11.219 10.122zm333.292-19.883v2.53c-8.588-7.418-19.903-.918-20.989 8.314-1.432 12.181 10.503 21.468 20.989 13.737v2.169h6.876v-26.751h-6.876zm-9.408 20.967c-5.459-1.695-6.888-12.935 0-14.821 13.759-3.194 11.598 18.425 0 14.821zm-672.374-14.46h9.409v20.244h6.876c.24-6.628-.482-14.219.361-20.244h8.323v-6.507h-24.97v6.507zm127.021 0h9.408v20.244h6.876c.24-6.628-.481-14.219.362-20.244h8.323v-6.507h-24.97v6.507zm55.729 1.446c-1.243 2.698-2.581 5.527-3.619 8.314-2.729-4.986-4.779-10.65-6.876-16.268h-6.876c.591 3.977 2.998 7.776 4.705 11.93 1.7 4.135 2.898 8.611 5.066 12.291-1.547 4.36-3.823 7.989-5.429 12.291h7.238c5.317-12.402 11.071-24.367 16.646-36.512h-6.515c-1.998 1.813-2.964 4.966-4.34 7.954zm132.086 1.446c-3.139-.238-7.234.479-9.771-.361v-9.037h-6.876v26.751h6.876c.239-3.496-.48-7.95.361-10.845h9.409v10.845h7.237v-26.751h-7.237v9.398zm147.285 17.352h6.876V222.16c3.139.238 7.234-.479 9.771.361v19.883h7.238v-26.751H771.41v26.751zm49.94-26.751c-3.529 9.127-7.688 17.624-11.218 26.751h6.875c2.395-5.32 4.307-11.122 6.876-16.268l6.514 16.268h6.876c-3.52-9.137-7.527-17.786-11.219-26.751h-4.704zm49.215 2.531c-4.108 4.323-7.891 9.14-11.58 12.291v-14.821h-6.514v26.751c2.704.627 4.298-.656 5.79-2.169 3.989-4.044 6.928-9.608 10.856-12.291v14.46h6.875v-26.751c-3.15-1.04-3.979 1.006-5.427 2.53zm21.351 3.976h9.047v20.244h6.876c.241-6.628-.481-14.219.362-20.244h8.685v-6.507h-24.97v6.507zm64.777-6.507h-7.962c-3.241 2.547-6.174 7.326-9.047 9.037v-9.037h-6.876v26.751h6.876c.238-2.895-.479-6.744.362-9.037 3.296 1.797 5.222 8.059 8.685 9.037 2.244.635 4.532-.446 7.962 0-2.577-4.536-8.287-9.073-11.58-14.099 4.117-3.959 8.017-8.137 11.58-12.652z"/></svg>