<svg width="22" height="25" fill="none" xmlns="http://www.w3.org/2000/svg"><path d="M20.868 6.421l-3.719 2.164a.308.308 0 01-.307 0l-6.029-3.527a.308.308 0 00-.307 0l-5.325 3.09c-.09.055-.199.055-.307 0l-3.7-2.145c-.2-.109-.2-.4 0-.527L10.505.041c.09-.055.199-.055.307 0l10.055 5.853c.199.127.199.418 0 .527zm-6.318 9.562l-3.593 2.072a.308.308 0 01-.306 0L.144 11.93A.321.321 0 010 11.657V7.512c0-.236.253-.382.451-.254l14.099 8.198c.198.109.198.4 0 .527z" fill="#fff"/><path d="M21.32 13.038v4.145a.294.294 0 01-.452.254L6.932 9.347c-.198-.108-.198-.4 0-.526l3.574-2.09a.308.308 0 01.307 0l10.362 6.034c.09.055.145.164.145.273zm-1.174 6.199l-9.333 5.435c-.09.055-.198.055-.306 0L.452 18.837c-.199-.11-.199-.4 0-.527l3.7-2.163c.09-.055.199-.055.307 0l6.21 3.58c.09.055.199.055.307 0l5.325-3.09a.31.31 0 01.307 0l3.556 2.073c.18.109.18.4-.018.527z" fill="#fff"/></svg>