<svg width="10" height="9" fill="none" xmlns="http://www.w3.org/2000/svg"><g clip-path="url(#clip0)" fill="#fff"><path d="M4.863.358C4.935.3 4.978.3 5.21.3c.116 0 .289.014.39.029.476.058.779.13 1.197.332.418.202.678.39 1.039.72.331.318.504.563.706.953.274.534.419 1.154.448 1.846.014.231 0 .289-.058.361-.101.13-.332.115-.418-.043-.03-.044-.03-.087-.044-.274a4.86 4.86 0 00-.072-.707c-.159-.88-.591-1.587-1.284-2.092-.577-.418-1.082-.577-1.86-.634-.275 0-.318 0-.375-.058C4.762.66 4.762.459 4.863.358z"/><path d="M6.29 2.16a2.723 2.723 0 00-1.067-.317c-.13-.014-.216-.043-.26-.1-.086-.073-.086-.202-.028-.289.072-.115.187-.13.519-.072.837.115 1.486.505 1.919 1.125a2.5 2.5 0 01.432 1.197c.015.159.015.447 0 .505-.014.043-.072.116-.13.13-.057.029-.173.029-.23-.014-.101-.058-.145-.13-.145-.361 0-.346-.086-.721-.26-1.01a1.987 1.987 0 00-.75-.793z"/><path d="M6.65 4.065a.26.26 0 01-.316 0c-.073-.043-.087-.101-.101-.245a1.472 1.472 0 00-.101-.433c-.116-.26-.332-.39-.693-.433-.173-.014-.216-.043-.274-.1-.1-.116-.058-.304.072-.376.058-.029.072-.029.188-.014.072 0 .173.014.23.029.275.057.477.158.664.317.23.216.36.462.404.837.029.245.014.346-.072.418zm2.323 3.073a.48.48 0 00-.13-.332c-.086-.101-.677-.577-.966-.765a8.856 8.856 0 00-.692-.418.78.78 0 00-.592-.058c-.043.015-.072.03-.1.043-.087.044-.16.13-.332.332-.116.145-.217.274-.231.274 0 0-.015 0-.015.015-.014.014-.057.029-.086.043-.188.087-.433.029-.837-.159a3.858 3.858 0 01-.909-.634c-.274-.246-.548-.548-.692-.794-.202-.317-.346-.72-.346-.952 0-.1.043-.23.086-.303l.015-.014.014-.015c.015-.014.029-.028.043-.028.058-.044.13-.116.202-.173.332-.26.404-.347.448-.49.043-.145 0-.333-.145-.592-.26-.476-.98-1.385-1.24-1.558-.044-.03-.116-.058-.159-.087C2.194.444 2.035.43 1.95.444c-.13.03-.289.13-.65.39-.216.159-.505.433-.577.548-.158.274-.144.49.044 1.024.173.476.404.952.663 1.414l.015.014c.057.087.115.188.173.274 0 .015.014.015.014.03.058.086.116.187.173.273.03.03.044.072.072.101.044.072.087.13.145.202.072.101.144.202.23.303a10.978 10.978 0 002.9 2.64c.014.014.029.014.043.029l.52.303c.028.014.043.028.071.043.174.1.361.187.549.274.014.014.043.014.057.029.188.086.39.173.592.26.245.1.332.115.519.1a.674.674 0 00.245-.043c.116-.029.217-.086.346-.173.03-.014.044-.029.073-.043a.383.383 0 00.086-.072 3.34 3.34 0 00.476-.52c.101-.13.173-.26.217-.36.014-.145.028-.245.028-.346z"/></g><defs><clipPath id="clip0"><path fill="#fff" transform="translate(.602 .3)" d="M0 0h8.4v8.4H0z"/></clipPath></defs></svg>