<svg width="58" height="52" viewBox="0 0 58 52" fill="none" xmlns="http://www.w3.org/2000/svg">
<mask id="path-1-inside-1" fill="white">
</mask>
<path d="M29 50C15.7452 50 5 39.2548 5 26H3C3 40.3594 14.6406 52 29 52V50ZM29 2C42.2548 2 53 12.7452 53 26H55C55 11.6406 43.3594 0 29 0V2Z" fill="#EAABAC" mask="url(#path-1-inside-1)"/>
<mask id="path-3-inside-2" fill="white">
<path d="M47 26C47 35.9411 38.9411 44 29 44C19.0589 44 11 35.9411 11 26C11 16.0589 19.0589 8 29 8C38.9411 8 47 16.0589 47 26Z"/>
</mask>
<path d="M45 26C45 34.8366 37.8366 42 29 42V46C40.0457 46 49 37.0457 49 26H45ZM29 42C20.1634 42 13 34.8366 13 26H9C9 37.0457 17.9543 46 29 46V42ZM13 26C13 17.1634 20.1634 10 29 10V6C17.9543 6 9 14.9543 9 26H13ZM29 10C37.8366 10 45 17.1634 45 26H49C49 14.9543 40.0457 6 29 6V10Z" fill="#8B0304" mask="url(#path-3-inside-2)"/>
<path d="M1 28L3.29289 25.7071C3.68342 25.3166 4.31658 25.3166 4.70711 25.7071L7 28" stroke="#EAABAC" stroke-width="2"/>
<path d="M57 24L54.7071 26.2929C54.3166 26.6834 53.6834 26.6834 53.2929 26.2929L51 24" stroke="#EAABAC" stroke-width="2"/>
<path d="M28.9502 34C32.3831 34 34 31.8565 34 29.442C34 23.9232 26.5124 24.687 26.5124 21.213C26.5124 19.7348 27.6816 18.7493 29.199 18.7493C30.5174 18.7493 31.7363 19.2174 32.6318 20.2029L33.6766 18.7246C32.5821 17.6159 31.0896 17 29.2488 17C26.4876 17 24.4975 18.7986 24.4975 21.3116C24.4975 26.6087 31.9851 25.5739 31.9851 29.5652C31.9851 30.9696 31.0398 32.2507 28.9502 32.2507C27.3333 32.2507 25.9403 31.4377 25.0945 30.4275L24 31.9304C25.1194 33.187 26.7861 34 28.9502 34Z" fill="#EAABAC"/>
<rect x="28" y="15" width="2" height="3" fill="#EAABAC"/>
<rect x="28" y="33" width="2" height="3" fill="#EAABAC"/>
</svg>
