<svg width="38" height="38" viewBox="0 0 38 38" fill="none" xmlns="http://www.w3.org/2000/svg">
<circle cx="11.9627" cy="19" r="2.11111" fill="#8B0304"/>
<circle cx="18.9998" cy="19" r="2.11111" fill="#8B0304"/>
<circle cx="26.0369" cy="19" r="2.11111" fill="#8B0304"/>
<mask id="path-4-inside-1" fill="white">
<path fill-rule="evenodd" clip-rule="evenodd" d="M19 38C29.4934 38 38 29.4934 38 19C38 8.50659 29.4934 0 19 0C8.50659 0 0 8.50659 0 19C0 22.9952 1.23308 26.7023 3.33943 29.7617C3.50328 29.9997 3.56447 30.2947 3.4995 30.5763L2.47089 35.0336C2.30472 35.7536 2.95006 36.399 3.67014 36.2328L8.41061 35.1389C8.67167 35.0786 8.9453 35.1267 9.17449 35.2655C12.0414 37.001 15.4041 38 19 38Z"/>
</mask>
<path d="M8.41061 35.1389L7.9609 33.1901L8.41061 35.1389ZM9.17449 35.2655L10.2102 33.5546L9.17449 35.2655ZM3.67014 36.2328L3.22042 34.284L3.67014 36.2328ZM3.33943 29.7617L1.69211 30.8958L3.33943 29.7617ZM3.4995 30.5763L5.44828 31.026L3.4995 30.5763ZM36 19C36 28.3888 28.3888 36 19 36V40C30.598 40 40 30.598 40 19H36ZM19 2C28.3888 2 36 9.61116 36 19H40C40 7.40202 30.598 -2 19 -2V2ZM2 19C2 9.61116 9.61116 2 19 2V-2C7.40202 -2 -2 7.40202 -2 19H2ZM4.98674 28.6275C3.10274 25.8911 2 22.5773 2 19H-2C-2 23.413 -0.636576 27.5136 1.69211 30.8958L4.98674 28.6275ZM4.41967 35.4833L5.44828 31.026L1.55072 30.1265L0.522104 34.5839L4.41967 35.4833ZM7.9609 33.1901L3.22042 34.284L4.11986 38.1816L8.86033 37.0876L7.9609 33.1901ZM19 36C15.7794 36 12.7736 35.1063 10.2102 33.5546L8.13875 36.9764C11.3093 38.8957 15.0287 40 19 40V36ZM8.86033 37.0876C8.5917 37.1496 8.33478 37.0951 8.13875 36.9764L10.2102 33.5546C9.55581 33.1584 8.75164 33.0076 7.9609 33.1901L8.86033 37.0876ZM0.522104 34.5839C0.0235925 36.7441 1.95964 38.6801 4.11986 38.1816L3.22042 34.284C3.94049 34.1179 4.58584 34.7632 4.41967 35.4833L0.522104 34.5839ZM1.69211 30.8958C1.55227 30.6927 1.48382 30.4164 1.55072 30.1265L5.44828 31.026C5.64512 30.173 5.45429 29.3066 4.98674 28.6275L1.69211 30.8958Z" fill="#EAABAC" mask="url(#path-4-inside-1)"/>
</svg>
