<svg xmlns="http://www.w3.org/2000/svg" width="49" height="49" fill="none" viewBox="0 0 49 49">
  <path stroke="#8B0304" d="M.5.5h48v48H.5z"/>
  <path fill="#EFBFBF" stroke="#8B0304" d="M24.689 42.463L48.5 32.744V48.5H.5V32.744l23.811 9.719.189.077.189-.077zM48.5.5v4.164l-24 9.796-24-9.796V.5h48z"/>
  <path stroke="#8B0304" stroke-linejoin="bevel" d="M.5 32.661V18.738l24 9.6v13.923l-24-9.6zM24.686 14.264L48.5 4.74v9.922l-23.686 9.475-.135.2h-.358l-.135-.2L.5 14.662V4.739l23.814 9.525h.372z"/>
  <path stroke="#8B0304" stroke-linejoin="bevel" d="M.5 18.662v-3.923l24 9.6v3.923l-24-9.6zM48.5 18.662v-3.923l-24 9.6v3.923l24-9.6zM48.5 32.661V18.738l-24 9.6v13.923l24-9.6z"/>
</svg>
